<?xml version="1.0" encoding="UTF-8" standalone="no"?>
<!-- Created with Inkscape (http://www.inkscape.org/) -->

<svg
   xmlns:dc="http://purl.org/dc/elements/1.1/"
   xmlns:cc="http://creativecommons.org/ns#"
   xmlns:rdf="http://www.w3.org/1999/02/22-rdf-syntax-ns#"
   xmlns:svg="http://www.w3.org/2000/svg"
   xmlns="http://www.w3.org/2000/svg"
   xmlns:sodipodi="http://sodipodi.sourceforge.net/DTD/sodipodi-0.dtd"
   xmlns:inkscape="http://www.inkscape.org/namespaces/inkscape"
   width="176.74615mm"
   height="79.516075mm"
   viewBox="0 0 176.74615 79.516075"
   version="1.1"
   id="svg23"
   inkscape:version="0.92.3 (2405546, 2018-03-11)"
   sodipodi:docname="logo_brasidas.svg">
  <defs
     id="defs17" />
  <sodipodi:namedview
     id="base"
     pagecolor="#ffffff"
     bordercolor="#666666"
     borderopacity="1.0"
     inkscape:pageopacity="0.0"
     inkscape:pageshadow="2"
     inkscape:zoom="1.4"
     inkscape:cx="403.9036"
     inkscape:cy="126.20784"
     inkscape:document-units="mm"
     inkscape:current-layer="layer1"
     showgrid="false"
     fit-margin-top="0.5"
     fit-margin-left="0.5"
     fit-margin-right="0.5"
     fit-margin-bottom="0.5"
     inkscape:window-width="1366"
     inkscape:window-height="705"
     inkscape:window-x="-8"
     inkscape:window-y="-8"
     inkscape:window-maximized="1" />
  <metadata
     id="metadata20">
    <rdf:RDF>
      <cc:Work
         rdf:about="">
        <dc:format>image/svg+xml</dc:format>
        <dc:type
           rdf:resource="http://purl.org/dc/dcmitype/StillImage" />
        <dc:title></dc:title>
      </cc:Work>
    </rdf:RDF>
  </metadata>
  <g
     inkscape:label="Calque 1"
     inkscape:groupmode="layer"
     id="layer1"
     transform="translate(-1.3962699,-0.59612669)">
    <path
       style="fill:#000000;stroke-width:0.16933334"
       d="m 89.661309,78.661224 c -0.47558,-1.17174 -1.01418,-1.82887 -1.89801,-2.31571 -0.37302,-0.20546 -0.87779,-0.48276 -1.1217,-0.61622 -0.24392,-0.13346 -1.129292,-0.48694 -1.967492,-0.78552 -3.143901,-1.11988 -3.498929,-1.2838 -5.249331,-2.4237 -1.25908,-0.81993 -2.196668,-1.62312 -3.383092,-2.89813 -0.649967,-0.6985 -1.230209,-1.29197 -1.289426,-1.31881 -0.05921,-0.0268 -0.495913,0.376 -0.970444,0.89521 -0.47453,0.51921 -0.922988,0.94156 -0.996577,0.93855 -0.188401,-0.008 -0.214225,-0.8283 -0.04818,-1.53095 0.07703,-0.32597 0.231598,-2.53577 0.34348,-4.91067 0.111882,-2.3749 0.23209,-4.34928 0.267123,-4.38752 0.03504,-0.0382 0.203518,0.057 0.374407,0.21167 0.170886,0.15465 0.396168,0.28118 0.500623,0.28118 0.104455,0 0.250857,0.0973 0.325335,0.21614 0.07448,0.11888 0.706913,0.62454 1.405413,1.12371 0.6985,0.49916 1.460498,1.04927 1.693336,1.22247 0.232831,0.17319 0.690031,0.47145 1.016,0.66279 0.325962,0.19133 1.011762,0.60622 1.524,0.92195 0.512231,0.31574 1.293281,0.7404 1.735662,0.94369 1.252497,0.57558 1.248378,0.57817 -1.62383,1.02119 -1.492052,0.23014 -1.700962,0.43953 -1.103522,1.10603 1.46135,1.63026 3.45525,3.16067 4.717021,3.62052 0.512231,0.18668 1.046549,0.40452 1.187371,0.48407 0.140819,0.0796 0.712319,0.27683 1.270003,0.43839 0.55768,0.16155 1.1083,0.37131 1.22363,0.46613 0.32067,0.26368 0.34666,0.0337 0.44694,-3.9536 l 0.0922,-3.66453 -0.45905,-0.10316 c -0.25247,-0.0568 -1.03054,-0.21375 -1.729044,-0.3489 -2.482159,-0.48027 -4.658021,-1.34202 -6.528742,-2.58573 -1.436859,-0.95526 -1.639509,-1.10564 -2.174319,-1.61349 -0.31537,-0.29946 -0.677992,-0.46699 -1.016003,-0.46938 -0.558101,-0.004 -1.866643,-0.53217 -2.308161,-0.93174 -0.211233,-0.19116 -0.387631,-0.20175 -0.874022,-0.0525 -0.801412,0.24596 -1.276945,0.10838 -2.039475,-0.59007 -0.34586,-0.3168 -0.675341,-0.52949 -0.73217,-0.47266 -0.05683,0.0568 -0.08247,0.0271 -0.05696,-0.066 0.02551,-0.0931 -0.01368,-0.42328 -0.08708,-0.73366 l -0.133453,-0.56432 -0.364471,0.33285 c -0.663292,0.60574 -1.42222,0.88048 -2.430399,0.87983 -1.087374,-7.9e-4 -2.054956,-0.44921 -2.204736,-1.02197 -0.04721,-0.18054 -0.154623,-0.28575 -0.238686,-0.23379 -0.08406,0.0519 -0.109543,0.16452 -0.05662,0.25015 0.05292,0.0856 -0.02204,0.11032 -0.166571,0.0548 -0.152733,-0.0586 -0.262795,-0.0105 -0.262795,0.11483 0,0.11862 -0.04717,0.1685 -0.104825,0.11085 -0.05765,-0.0577 -0.210966,0.001 -0.340688,0.13104 -0.380013,0.38001 -1.693302,0.49146 -2.964582,0.25158 -0.639048,-0.12058 -1.161905,-0.28771 -1.161905,-0.3714 0,-0.0837 -0.0762,-0.10507 -0.169333,-0.0475 -0.09313,0.0576 -0.169333,0.024 -0.169333,-0.0747 0,-0.0986 -0.141275,-0.17933 -0.313942,-0.17933 -0.172664,0 -0.53318,-0.20319 -0.801145,-0.45153 -0.451744,-0.41866 -0.585925,-0.44909 -1.843572,-0.41815 -1.361492,0.0335 -2.968008,-0.25175 -2.968008,-0.52699 0,-0.081 -0.0762,-0.10022 -0.169333,-0.0427 -0.09313,0.0576 -0.169334,0.04 -0.169334,-0.0389 0,-0.079 -0.428736,-0.36788 -0.952746,-0.64203 -0.524007,-0.27415 -1.132295,-0.73386 -1.351745,-1.02158 -0.219454,-0.28772 -0.590818,-0.62578 -0.825257,-0.75124 -0.234439,-0.12547 -0.426252,-0.2804 -0.426252,-0.34429 0,-0.0639 0.6858,-0.21447 1.524,-0.33461 0.8382,-0.12014 1.524,-0.28873 1.524,-0.37463 0,-0.0859 0.1524,-0.10782 0.338667,-0.0487 0.186267,0.0591 0.338667,0.0435 0.338667,-0.0348 0,-0.0782 0.811067,-0.2914 1.802368,-0.47368 l 1.80237,-0.33142 -1.844704,-0.21507 c -1.062929,-0.12392 -2.526442,-0.17234 -3.453368,-0.11426 -1.799386,0.11277 -5.53181,-0.18201 -5.871212,-0.4637 -0.121262,-0.10063 -0.333304,-0.13967 -0.471207,-0.0868 -0.137904,0.0529 -0.295773,0.0233 -0.350817,-0.0657 -0.05505,-0.0891 -0.347046,-0.16194 -0.64889,-0.16194 -0.301845,0 -0.621197,-0.0636 -0.709674,-0.14134 -0.08848,-0.0777 -0.52419,-0.27507 -0.968253,-0.43851 -1.034053,-0.38058 -2.349122,-1.27002 -3.435691,-2.32371 -0.471025,-0.45678 -0.921393,-0.77139 -1.000816,-0.69913 -0.07942,0.0723 -0.09534,0.0454 -0.03536,-0.0596 0.06176,-0.10818 -0.172744,-0.37748 -0.540776,-0.62103 -0.967026,-0.63995 -2.731299,-2.32126 -2.731299,-2.60287 0,-0.14264 -0.08203,-0.19506 -0.195496,-0.12493 -0.109659,0.0678 -0.149934,0.0471 -0.09173,-0.0471 0.114943,-0.18598 -0.325154,-0.90042 -0.554659,-0.90042 -0.07994,0 -0.323271,-0.14989 -0.540732,-0.3331 -0.817676,-0.68885 -2.013061,-1.52957 -2.174848,-1.52957 -0.09233,0 -0.16787,-0.07 -0.16787,-0.15551 0,-0.0855 -0.350571,-0.56177 -0.779045,-1.05833 -0.428477,-0.49655 -0.851342,-1.0557 -0.939705,-1.24254 -0.08836,-0.18685 -0.44264,-0.50336 -0.787286,-0.70337 -0.344646,-0.2 -1.092859,-0.7874 -1.662691,-1.30533 -0.569833,-0.51793 -1.091428,-0.88722 -1.159098,-0.82064 -0.06767,0.0666 -0.106767,0.007 -0.08688,-0.13295 0.06893,-0.4842 -0.0047,-0.69689 -0.199461,-0.57649 -0.113217,0.07 -0.149822,0.0469 -0.08697,-0.0548 0.05969,-0.0966 -0.04556,-0.37148 -0.233875,-0.61088 -0.188319,-0.23941 -0.42225,-0.66435 -0.519847,-0.94432 -0.0976,-0.27997 -0.324051,-0.55556 -0.503231,-0.61243 -0.593221,-0.18828 -2.932745,-2.03621 -3.886053,-3.06949 -0.515979,-0.55927 -1.215964,-1.58222 -1.555523,-2.27323 -0.519862,-1.05793 -0.786256,-1.38075 -1.686524,-2.04376 -1.59844,-1.17717 -3.202699,-2.68897 -3.074143,-2.89698 0.07172,-0.11605 0.01068,-0.14385 -0.166525,-0.0759 -0.172482,0.0662 -0.264293,0.0285 -0.239445,-0.0982 0.02217,-0.11307 -0.06061,-0.18464 -0.183951,-0.15905 -0.123339,0.0256 -0.179135,-0.0265 -0.123991,-0.1157 0.05514,-0.0892 -0.159536,-0.64356 -0.477067,-1.23186 -0.317531,-0.5883 -0.626534,-1.35216 -0.686673,-1.69748 -0.166432,-0.95564 -0.408593,-1.30654 -1.836909,-2.66173 -0.724292,-0.68721 -1.585235,-1.61503 -1.913208,-2.06182 -0.327973,-0.44679 -0.687871,-0.79054 -0.799773,-0.76389 -0.111902,0.0266 -0.151408,0.0182 -0.08779,-0.0188 0.06362,-0.037 -0.145795,-0.50075 -0.46536,-1.03058 C 6.165006,9.6115941 5.56352,7.8225041 5.847201,7.6471841 c 0.149344,-0.0923 0.154671,-0.16125 0.01894,-0.24514 -0.103868,-0.0642 -0.638623,-0.6393 -1.188345,-1.27801 -0.549723,-0.63871 -1.056591,-1.11006 -1.126376,-1.04745 -0.06978,0.0626 -0.0792,0.0301 -0.02092,-0.0722 0.05828,-0.10231 -0.04279,-0.34569 -0.224598,-0.54083 C 2.825029,3.9473938 1.939493,2.1366038 1.902203,1.5931838 c -0.02697,-0.39307 0.02908,-0.46024 0.355006,-0.42537 0.413569,0.0443 2.237628,1.33842 2.237628,1.5876 0,0.0819 0.08461,0.14899 0.188013,0.14899 0.103406,0 0.693956,0.36644 1.312333,0.8143 2.373831,1.7192603 5.801709,3.8720703 7.897653,4.9599703 0.745067,0.38673 1.392767,0.75891 1.439333,0.82706 0.167054,0.24449 1.734174,0.8442799 1.923404,0.7361399 0.106295,-0.0607 0.135717,-0.047 0.06538,0.0305 -0.139683,0.15392 2.138351,1.47666 3.091213,1.79491 0.325967,0.10887 1.362895,0.56317 2.304285,1.00957 0.94139,0.44639 2.10344,0.93978 2.582333,1.09642 0.478893,0.15663 0.870716,0.36037 0.870716,0.45275 0,0.0924 0.109377,0.12599 0.243059,0.0747 0.133683,-0.0513 0.267033,-0.0331 0.296333,0.0404 0.0926,0.23232 3.159869,1.24823 3.441917,1.14 0.148289,-0.0569 0.227994,-0.0361 0.177126,0.0462 -0.09116,0.14749 0.378036,0.43368 0.625231,0.38135 0.06985,-0.0148 0.127,0.0404 0.127,0.12271 0,0.0823 0.17145,0.18635 0.381,0.23127 0.749922,0.16077 4.450501,1.3141 4.726067,1.47293 0.283348,0.16332 3.640278,1.09713 5.052936,1.40559 0.4191,0.0915 0.859089,0.24465 0.977757,0.3403 0.118668,0.0956 0.264057,0.12561 0.323088,0.0666 0.05903,-0.059 0.190537,-0.0418 0.29224,0.0384 0.189788,0.14953 0.42554,0.20691 3.910248,0.95163 1.1176,0.23885 2.203334,0.52091 2.412744,0.62682 0.209409,0.1059 0.430998,0.14229 0.492418,0.0809 0.06142,-0.0614 0.201885,-0.0368 0.31214,0.0547 0.110254,0.0915 1.031666,0.28543 2.047581,0.43095 2.012252,0.28824 9.861542,1.10823 10.604601,1.10782 0.253084,-1.3e-4 0.505232,0.0727 0.560329,0.16184 0.0551,0.0891 0.343326,0.16269 0.640511,0.16342 0.297188,6.9e-4 1.45474,0.20114 2.57234,0.44533 1.1176,0.24419 2.1971,0.45314 2.39889,0.46433 0.20179,0.0112 0.338214,0.049 0.30317,0.084 -0.03505,0.0351 0.397182,0.36162 0.960512,0.72572 2.087713,1.34935 2.597155,2.19409 2.587559,4.29056 -0.0066,1.44002 -0.04575,1.60232 -0.710626,2.94515 -0.387006,0.78163 -0.65555,1.50553 -0.596763,1.60866 0.05879,0.10314 0.04794,0.13445 -0.0241,0.0696 -0.07204,-0.0649 -0.440672,0.27803 -0.819174,0.762 -1.096468,1.40199 -2.294768,2.67541 -2.994724,3.18246 -0.378904,0.27448 -0.636987,0.59664 -0.622133,0.77661 0.01397,0.16915 -0.06852,0.28894 -0.183301,0.2662 -0.250113,-0.0495 -0.431855,0.58132 -0.354864,1.2318 0.100605,0.85001 0.774634,1.15971 2.691527,1.23671 0.932434,0.0375 1.678482,0.002 1.657887,-0.0789 -0.03989,-0.15653 0.181377,-0.98815 0.737447,-2.77163 1.179351,-3.78253 3.307064,-6.88183 6.457066,-9.40556 1.807588,-1.44821 4.64285,-2.85858 6.915848,-3.44021 l 1.746442,-0.4469 0.0501,-1.143 c 0.0572,-1.30473 0.0787,-1.31703 1.36669,-0.78175 0.83395,0.34657 0.86924,0.38782 0.86924,1.016 0,0.36011 0.0762,0.65475 0.16934,0.65475 0.0931,0 0.16933,-0.2656 0.16933,-0.59022 0,-0.55121 0.0669,-0.62398 1.01117,-1.10067 0.55615,-0.28074 1.08955,-0.51044 1.18533,-0.51044 0.26058,0 0.22483,2.15267 -0.0375,2.25852 -0.11641,0.047 -0.0462,0.0914 0.15597,0.0988 1.1864,0.0431 4.59286,1.07034 6.18051,1.8637 2.21454,1.10662 3.098941,1.77028 5.220521,3.91755 2.46085,2.49064 4.00347,5.24333 4.92863,8.79478 0.20622,0.79164 0.45799,1.50046 0.55949,1.57516 0.1015,0.0747 1.02275,0.10836 2.04722,0.0748 2.05807,-0.0674 2.67386,-0.30157 2.8723,-1.09224 0.12173,-0.48498 -0.20005,-1.45378 -0.43468,-1.30877 -0.0813,0.0502 -0.10535,-0.0192 -0.0535,-0.15418 0.0603,-0.15722 -0.23367,-0.51048 -0.81765,-0.98246 -0.50151,-0.40533 -1.19417,-1.07987 -1.53924,-1.49897 -0.34506,-0.4191 -0.92197,-1.11978 -1.28202,-1.55705 -0.36005,-0.43728 -0.71347,-0.74208 -0.78539,-0.67733 -0.0719,0.0647 -0.0814,0.0312 -0.021,-0.0745 0.0604,-0.10572 -0.1887,-0.77251 -0.55353,-1.48176 -0.85123,-1.65486 -1.10298,-2.82821 -0.87335,-4.07043 0.22278,-1.20509 0.5196,-1.76325 1.32425,-2.49021 1.47905,-1.33623 3.96508,-2.28488 6.82048,-2.60264 0.60536,-0.0674 1.1879,-0.19287 1.29452,-0.27891 0.10662,-0.086 0.46857,-0.12615 0.80433,-0.0891 0.33576,0.037 0.61048,0.0137 0.61048,-0.0517 0,-0.0654 1.12395,-0.2124 2.49767,-0.32661 4.92764,-0.40968 8.98505,-0.93492 9.2493,-1.19734 0.0812,-0.0806 0.25362,-0.10594 0.38315,-0.0562 0.12954,0.0497 0.32981,0.0145 0.44504,-0.0783 0.11523,-0.0928 0.47621,-0.21901 0.80217,-0.28048 1.84543,-0.34795 5.29645,-1.13709 5.50334,-1.25842 0.0931,-0.0546 0.24553,-0.10568 0.33866,-0.11347 0.0931,-0.008 0.28364,-0.0614 0.42334,-0.11909 0.1397,-0.0577 1.35843,-0.3833 2.70829,-0.72353 1.34986,-0.34022 2.56172,-0.70774 2.69302,-0.81671 0.13131,-0.10897 0.24608,-0.17416 0.25504,-0.14487 0.009,0.0293 0.13061,0.015 0.27031,-0.0317 0.1397,-0.0467 1.1684,-0.36355 2.286,-0.70405 1.1176,-0.3405 2.2606,-0.72376 2.54,-0.85169 0.60263,-0.27591 3.89909,-1.42606 4.445,-1.55088 0.20955,-0.0479 0.381,-0.14852 0.381,-0.22357 0,-0.0751 0.28575,-0.22762 0.635,-0.33904 1.26305,-0.40295 3.09033,-1.21355 3.09033,-1.37091 0,-0.0885 0.0952,-0.14443 0.21167,-0.12424 0.29848,0.0518 1.14883,-0.38344 1.05279,-0.53884 -0.0438,-0.0708 0.0539,-0.0942 0.21698,-0.052 0.16311,0.0422 1.37902,-0.46016 2.70202,-1.11645 1.323,-0.6563 2.48505,-1.19327 2.58233,-1.19327 0.0973,0 0.17688,-0.0762 0.17688,-0.1693299 0,-0.0931 0.1143,-0.16933 0.254,-0.16933 0.1397,0 0.254,-0.0616 0.254,-0.13694 0,-0.0753 0.51435,-0.37673 1.143,-0.66981 0.62865,-0.29308 1.5408,-0.78391 2.027,-1.09073 0.4862,-0.30682 1.43346,-0.90076 2.10503,-1.31986 0.67157,-0.4191 2.12126,-1.39065 3.22156,-2.1589963 1.10027,-0.768349 2.07706,-1.397 2.17063,-1.397 0.0936,0 0.17011,-0.067 0.17011,-0.14899 0,-0.20238 1.69291,-1.46764 2.16356,-1.61702 0.59072,-0.18747996 0.61617,0.23302 0.0926,1.53033 -0.25903,0.641861 -0.45042,1.23352 -0.42531,1.31479 0.0251,0.0813 -0.0568,0.108471 -0.18195,0.0604 -0.13447,-0.0516 -0.3099,0.0986 -0.42874,0.3670363 -0.11062,0.24991 -0.5889,0.88946 -1.06287,1.42123 -0.47394,0.53177 -0.80726,0.96685 -0.74068,0.96685 0.0666,0 -0.0696,0.14998 -0.30266,0.33329 -0.29216,0.22981 -0.40127,0.45327 -0.35144,0.71967 0.0398,0.21251 -0.11879,0.89197 -0.35235,1.50993 -0.23354,0.61795 -0.39048,1.1703999 -0.34874,1.2276599 0.0417,0.0573 0.0306,0.0715 -0.0248,0.0317 -0.11127,-0.0801 -1.76198,2.0391 -1.76198,2.26203 0,0.0768 -0.11345,0.2338 -0.25214,0.34889 -0.13867,0.11509 -0.2031,0.28859 -0.14317,0.38556 0.0599,0.097 0.0296,0.12728 -0.0673,0.0674 -0.097,-0.0599 -0.28019,0.0169 -0.40716,0.17065 -0.12697,0.15378 -0.76381,0.73877 -1.4152,1.29997 -0.81201,0.69958 -1.16745,1.11999 -1.13064,1.33728 0.0295,0.17431 -0.0353,0.42412 -0.14401,0.55514 -0.10873,0.13102 -0.16644,0.33198 -0.12824,0.44658 0.0382,0.1146 -0.22034,0.73558 -0.57453,1.37996 -0.3542,0.64437 -0.59508,1.25074 -0.53529,1.34748 0.063,0.10199 0.0266,0.12514 -0.0868,0.0551 -0.18445,-0.11399 -0.27772,0.11374 -0.20144,0.49183 0.0188,0.0931 -0.022,0.11322 -0.0905,0.0446 -0.0686,-0.0686 -0.70786,0.43245 -1.42061,1.1134 -0.71274,0.68096 -1.71926,1.55086 -2.23671,1.93312 -0.67762,0.50059 -1.08741,0.97671 -1.46489,1.702 -0.28824,0.55384 -0.4702,1.06672 -0.40436,1.13973 0.0658,0.073 0.0245,0.0779 -0.0919,0.0109 -0.13004,-0.0748 -0.21167,-0.0223 -0.21167,0.13634 0,0.4073 -2.16988,2.46641 -3.64898,3.46273 -0.7405,0.49879 -1.34635,0.95599 -1.34635,1.016 0,0.06 -0.0462,0.0937 -0.10258,0.0749 -0.0564,-0.0188 -0.20066,0.26297 -0.32052,0.62617 -0.11987,0.3632 -0.32136,0.70004 -0.44776,0.74854 -0.12639,0.0485 -0.22981,0.20489 -0.22981,0.34751 0,0.14262 -0.0762,0.25931 -0.16933,0.25931 -0.0931,0 -0.16933,0.10786 -0.16933,0.23969 0,0.25548 -1.69726,1.79837 -2.75015,2.50001 -0.68993,0.45977 -1.68837,1.80664 -1.52965,2.06345 0.0543,0.0879 0.0163,0.10886 -0.0845,0.0465 -0.10153,-0.0627 -0.50281,0.26558 -0.89934,0.73584 -0.3938,0.46703 -0.80139,0.84914 -0.90576,0.84914 -0.10437,0 -0.43534,0.2243 -0.73549,0.49846 -0.30016,0.27415 -0.54574,0.4592 -0.54574,0.41123 0,-0.048 -0.11974,0.0325 -0.2661,0.17888 -0.14635,0.14636 -0.36412,0.2661 -0.48393,0.2661 -0.11981,0 -0.48975,0.44053 -0.82209,0.97897 -0.57936,0.93864 -1.69197,2.02113 -2.76164,2.68688 -0.27702,0.17241 -0.83701,0.67798 -1.24442,1.12349 -0.40741,0.4455 -1.29513,1.1808 -1.97272,1.634 -0.67759,0.4532 -1.17988,0.88196 -1.11621,0.95281 0.0637,0.0709 0.0201,0.0737 -0.0969,0.006 -0.21004,-0.12092 -1.32972,0.18012 -1.64154,0.44136 -0.0885,0.0741 -0.36973,0.13476 -0.62501,0.13476 -0.25527,0 -0.50917,0.0729 -0.56422,0.16194 -0.055,0.0891 -0.21291,0.11864 -0.35082,0.0657 -0.1379,-0.0529 -0.34994,-0.0139 -0.4712,0.0868 -0.31998,0.26556 -3.71947,0.53002 -6.46388,0.50287 -1.30387,-0.0129 -2.90407,0.0461 -3.556,0.13104 l -1.18534,0.1545 1.73567,0.3333 c 0.95462,0.18332 1.73567,0.39752 1.73567,0.476 0,0.0785 0.14763,0.0958 0.32807,0.0386 0.18044,-0.0573 0.46619,-0.0246 0.635,0.0727 0.16881,0.0972 0.86173,0.27351 1.53982,0.39173 l 1.23289,0.21495 -0.92093,0.96614 c -0.58853,0.61741 -1.27802,1.12872 -1.91023,1.4166 -0.54411,0.24775 -1.02739,0.5013 -1.07396,0.56343 -0.21387,0.28534 -1.64173,0.52682 -2.9803,0.50402 -1.19746,-0.0204 -1.49925,0.0259 -1.62429,0.24937 -0.17139,0.30626 -1.15241,0.87622 -1.39122,0.80829 -0.0846,-0.0241 -0.2064,0.0413 -0.27067,0.14531 -0.17881,0.28933 -2.18542,0.57386 -3.08716,0.43776 -0.44127,-0.0666 -0.91752,-0.2363 -1.05833,-0.37712 -0.14082,-0.14082 -0.25603,-0.19792 -0.25603,-0.1269 0,0.071 -0.10897,-0.0188 -0.24216,-0.19957 -0.23424,-0.31795 -0.26212,-0.30942 -0.853,0.261 -0.56404,0.5445 -0.70445,0.59431 -1.83218,0.64987 -1.08652,0.0535 -1.29141,0.0124 -1.85632,-0.37293 -0.34925,-0.2382 -0.635,-0.38273 -0.635,-0.32117 0,0.0616 -0.11188,-0.036 -0.24862,-0.21677 -0.23718,-0.31358 -0.24886,-0.30617 -0.254,0.16116 -0.004,0.35612 -0.22992,0.71439 -0.82786,1.31233 -0.67669,0.67669 -0.92967,0.82248 -1.42724,0.82248 -0.33262,0 -0.72012,-0.11536 -0.86112,-0.25636 -0.21138,-0.21138 -0.28035,-0.21636 -0.3931,-0.0283 -0.0752,0.12541 -0.57649,0.441 -1.11397,0.70132 -0.77211,0.37395 -1.13579,0.45542 -1.73259,0.38815 -0.49434,-0.0557 -0.71812,-0.0249 -0.6476,0.0892 0.0607,0.0982 0.0254,0.12344 -0.0809,0.0578 -0.10375,-0.0641 -0.47747,0.1411 -0.8305,0.45606 -1.48349,1.32353 -4.419731,2.94757 -6.483851,3.58625 -0.51224,0.15849 -1.57904,0.42424 -2.37067,0.59055 -0.79163,0.16632 -1.27964,0.31132 -1.08446,0.32223 0.33452,0.0187 0.36118,0.14361 0.46498,2.17883 0.0606,1.18745 0.11042,2.8938 0.11079,3.79189 5.3e-4,1.23059 0.0582,1.65494 0.23406,1.72243 0.12835,0.0493 0.2998,0.0319 0.381,-0.0386 0.0812,-0.0705 0.52863,-0.2622 0.9943,-0.42608 0.46566,-0.16388 1.07526,-0.39607 1.35466,-0.51599 0.2794,-0.11991 0.8128,-0.31394 1.18534,-0.43117 1.27176,-0.40021 3.646441,-1.91055 5.247351,-3.33741 1.0424,-0.92908 1.01421,-1.18747 -0.0969,-0.88827 -0.38466,0.10357 -0.93997,0.16759 -1.23402,0.14226 -0.294031,-0.0253 -0.625271,0.01 -0.736071,0.0784 -0.21958,0.1357 -1.06656,-0.0247 -1.05901,-0.20056 0.003,-0.0598 0.27725,-0.29914 0.61042,-0.53198 0.33317,-0.23283 0.88352,-0.65425 1.223011,-0.93648 0.33947,-0.28224 0.94601,-0.73416 1.34783,-1.00427 0.40181,-0.27011 1.0612,-0.78214 1.4653,-1.13784 0.40411,-0.35571 0.81194,-0.64674 0.90631,-0.64674 0.0944,0 0.19697,-0.0643 0.22801,-0.14277 0.031,-0.0785 0.51365,-0.4977 1.07245,-0.9315 0.5588,-0.4338 1.25985,-0.986 1.5579,-1.2271 0.29805,-0.2411 0.61516,-0.3931 0.70468,-0.33776 0.0965,0.0596 0.17532,1.98046 0.19356,4.7142 0.0169,2.53748 0.0698,4.93776 0.1175,5.33396 0.0477,0.39619 0.0369,0.85007 -0.0239,1.00862 -0.0947,0.24689 -0.16934,0.21641 -0.51976,-0.21236 -0.22503,-0.27534 -0.41189,-0.58318 -0.41524,-0.68408 -0.003,-0.10089 -0.2617,-0.47916 -0.57413,-0.84058 l -0.56804,-0.65713 -0.99829,1.07364 c -0.54906,0.5905 -1.02369,1.14022 -1.05474,1.22158 -0.031,0.0814 -0.15563,0.14795 -0.27685,0.14795 -0.12123,0 -0.34524,0.1905 -0.4978,0.42333 -0.15256,0.23283 -0.3599,0.42333 -0.46077,0.42333 -0.10087,0 -0.46106,0.21476 -0.80043,0.47725 -0.66684,0.51576 -0.72569,0.54481 -4.003701,1.97564 -3.61953,1.5799 -4.20435,1.8687 -5.12802,2.53229 -0.48582,0.34903 -0.88331,0.72846 -0.88331,0.84319 0,0.11473 -0.19179,0.38877 -0.42619,0.60898 -0.2344,0.2202 -0.51316,0.69069 -0.61947,1.04551 -0.1063,0.35483 -0.28667,0.64514 -0.40081,0.64514 -0.11415,0 -0.3813,-0.42812 -0.59367,-0.95138 z m 4.24147,-15.18457 c 5.33086,-1.39156 9.742021,-5.00723 12.185771,-9.98824 2.28976,-4.66713 2.6589,-9.528 1.10937,-14.60811 -2.5689,-8.4221 -11.088681,-14.13394 -19.605501,-13.14393 -8.428683,0.97976 -14.670379,6.82793 -16.566729,15.52223 -0.289079,1.32537 -0.29667,5.78745 -0.01209,7.112 1.104874,5.1427 3.67135,9.23129 7.630655,12.1562 1.53725,1.13563 4.35742,2.45578 6.21108,2.90747 2.339384,0.57004 2.411934,0.57743 5.068114,0.5166 1.84848,-0.0423 2.72501,-0.1468 3.97934,-0.47422 z m -6.3997,0.0982 c -0.26499,-0.0507 -0.36365,-0.16444 -0.31057,-0.35794 0.0428,-0.15597 0.12698,-0.64554 0.18708,-1.08792 l 0.10927,-0.80434 h 1.27088 1.27087 l -0.0536,0.46567 c -0.0479,0.41668 -0.12929,0.47115 -0.77325,0.51774 -0.71617,0.0518 -0.71967,0.0553 -0.71967,0.71966 0,0.70196 -0.044,0.72651 -0.98103,0.54713 z m 1.3197,-0.37779 c 0,-0.46514 0.0478,-0.50173 0.71967,-0.55034 0.69856,-0.0505 0.7212,-0.0707 0.77222,-0.68707 0.0476,-0.5754 0.0986,-0.635 0.54266,-0.635 0.52106,0 0.47511,-0.10396 0.7584,1.71613 0.0598,0.38431 -0.003,0.46057 -0.45159,0.55034 -0.28657,0.0573 -0.9306,0.1042 -1.43119,0.1042 -0.89446,0 -0.91017,-0.009 -0.91017,-0.49826 z m -2.45533,0.24887 c -0.0931,-0.0285 -0.611932,-0.14291 -1.152872,-0.25424 -0.924111,-0.19018 -0.980372,-0.22967 -0.931331,-0.65372 0.0479,-0.41394 0.11503,-0.45132 0.810792,-0.45132 0.709229,0 0.764669,-0.0331 0.852019,-0.508 0.082,-0.44613 0.15449,-0.50127 0.594812,-0.45281 0.27576,0.0303 0.52375,0.0775 0.55109,0.10489 0.0273,0.0273 -0.0102,0.52965 -0.0834,1.11624 -0.12602,1.00974 -0.24823,1.21922 -0.64111,1.09896 z m 5.60433,-0.28555 c -0.0454,-0.21801 -0.12671,-0.74013 -0.18073,-1.16025 l -0.0982,-0.76386 1.1355,-0.29782 c 0.68534,-0.17975 1.19682,-0.23649 1.29018,-0.14313 0.30007,0.30007 0.0371,0.77099 -0.51965,0.93067 -0.54361,0.1559 -0.55322,0.17522 -0.44528,0.895 0.0994,0.66281 0.0763,0.73566 -0.23373,0.73566 -0.18922,0 -0.46138,0.045 -0.6048,0.10007 -0.179,0.0687 -0.28663,-0.0242 -0.34327,-0.29634 z m 1.5162,-0.42266 c -0.11674,-0.46513 0.0901,-0.72564 0.58413,-0.73573 0.53954,-0.011 0.68035,-0.24571 0.508,-0.84667 -0.17978,-0.62687 -0.0304,-0.8395 0.59267,-0.84384 0.25352,-0.002 0.43663,0.23806 0.72834,0.95394 0.21432,0.52595 0.32862,1.01175 0.254,1.07955 -0.14992,0.13621 -2.16519,0.84235 -2.40399,0.84235 -0.0827,0 -0.20108,-0.20232 -0.26315,-0.4496 z m -10.549533,-0.23301 c -0.20955,-0.0842 -0.381,-0.19152 -0.381,-0.23844 0,-0.28899 0.860239,-1.95762 1.009232,-1.95762 0.0997,0 0.642048,0.12813 1.205298,0.28473 0.968621,0.2693 1.018181,0.30826 0.915019,0.71932 -0.141787,0.56491 -0.12886,0.55796 -0.661759,0.35536 -0.733219,-0.27877 -0.89928,-0.21044 -1.017289,0.41859 -0.117271,0.62512 -0.33887,0.71174 -1.069501,0.41806 z m -2.032,-0.95305 c -1.121148,-0.63146 -1.218118,-0.78578 -0.790599,-1.25819 0.25441,-0.28111 0.295849,-0.27926 0.832239,0.0372 l 0.564502,0.33306 0.30494,-0.51621 c 0.333787,-0.56507 0.525708,-0.62552 0.965298,-0.30408 0.27179,0.19874 0.265811,0.27896 -0.0946,1.26985 -0.211612,0.58174 -0.46095,1.05247 -0.55408,1.04607 -0.0931,-0.006 -0.645581,-0.27987 -1.22767,-0.60772 z m 15.552263,0.23866 c -0.0798,-0.20955 -0.26837,-0.67606 -0.41914,-1.03668 -0.15077,-0.36062 -0.27412,-0.67937 -0.27412,-0.70834 0,-0.029 0.48893,-0.31229 1.08652,-0.62961 l 1.08653,-0.57695 0.22015,0.41137 c 0.18521,0.34606 0.18074,0.43401 -0.0282,0.55402 -0.13658,0.0785 -0.40074,0.25653 -0.58701,0.39569 -0.32716,0.24443 -0.3286,0.27016 -0.0423,0.75739 0.38335,0.65245 0.38336,0.65242 -0.20326,0.95576 -0.64357,0.33281 -0.66709,0.32937 -0.83914,-0.12265 z m 1.37478,-0.8775 c -0.17017,-0.37349 -0.13328,-0.44392 0.39614,-0.75629 l 0.58379,-0.34444 -0.28561,-0.59893 c -0.27353,-0.57359 -0.27174,-0.60942 0.0423,-0.847 0.18038,-0.13644 0.38437,-0.25049 0.45331,-0.25345 0.1705,-0.007 1.304531,1.55347 1.309781,1.80268 0.004,0.199 -1.842021,1.40926 -2.149771,1.40926 -0.0893,0 -0.24678,-0.18532 -0.34998,-0.41183 z m -10.36538,-0.0288 c -3.244503,-0.59388 -5.844042,-1.72958 -7.924193,-3.46199 -6.348492,-5.28719 -7.713054,-14.72105 -3.129982,-21.63905 5.140524,-7.75945 15.427685,-9.42611 22.691265,-3.67629 2.952971,2.33757 5.085761,5.91196 5.814481,9.74464 0.29947,1.5751 0.25415,4.73041 -0.0912,6.35 -0.82293,3.85916 -3.10148,7.45124 -6.169031,9.7253 -1.46178,1.08367 -3.94135,2.24925 -5.60333,2.634 -1.22009,0.28245 -4.70867,0.48434 -5.588,0.32339 z m 4.26342,-0.41008 c 0.68195,-0.0954 1.93978,-0.42727 2.79517,-0.73757 4.52828,-1.64266 8.015031,-5.2869 9.502181,-9.93138 3.06819,-9.58219 -3.17311,-19.57258 -12.912221,-20.66847 -7.493493,-0.84321 -14.387889,3.92404 -16.551498,11.44481 -0.338325,1.17603 -0.389718,1.73427 -0.389718,4.23333 0,2.49635 0.05143,3.05623 0.38722,4.21556 1.535494,5.30137 5.194954,9.20391 10.175505,10.85143 2.261381,0.74804 4.514811,0.93889 6.993361,0.59229 z m 5.7253,-4.89757 c -0.14078,-0.0825 -0.86718,-0.26595 -1.61423,-0.40766 -0.88264,-0.16744 -1.69142,-0.45406 -2.30967,-0.81852 -1.93359,-1.13986 -2.60484,-1.56538 -3.07214,-1.94747 -0.65123,-0.5325 -0.96836,-0.49498 -1.91337,0.22636 -1.11025,0.84748 -2.33774,1.38008 -3.493812,1.51595 -1.001379,0.1177 -1.14449,0.0346 -0.734999,-0.42703 0.413858,-0.46652 1.117499,-1.84381 1.117499,-2.18738 0,-0.3515 0.802082,-1.13812 1.692282,-1.65967 0.29567,-0.17322 1.09536,-1.07695 1.77709,-2.00829 1.47238,-2.01144 1.90282,-2.43325 3.13463,-3.0718 0.72934,-0.37807 1.20679,-0.4947 2.20134,-0.53772 l 1.27,-0.0549 0.75802,1.62056 c 0.41692,0.89131 0.79792,1.62086 0.84667,1.62121 0.14609,0.001 0.72955,1.53157 0.62407,1.63705 -0.22013,0.22012 -0.59904,-0.12975 -0.79799,-0.73683 -0.1166,-0.35577 -0.47635,-0.97071 -0.79945,-1.36653 -0.50407,-0.61751 -0.67886,-0.71966 -1.2314,-0.71966 -0.68341,0 -1.68592,0.66086 -1.68592,1.11137 0,0.43485 0.95776,0.76712 2.06189,0.71533 l 1.0381,-0.0487 0.57827,1.86266 c 0.31806,1.02447 0.83938,2.6966 1.15851,3.71586 0.44412,1.41845 0.53078,1.88459 0.3694,1.98707 -0.27469,0.17443 -0.65506,0.16615 -0.97479,-0.0212 z m -17.177113,-1.89666 c -0.14425,-0.48575 -0.26227,-0.98543 -0.26227,-1.11041 0,-0.23211 2.974861,-1.7433 3.43178,-1.7433 0.13865,0 0.34443,0.11127 0.45729,0.24726 0.169821,0.20462 -0.0254,0.46611 -1.13171,1.5161 -0.735309,0.69786 -1.538499,1.42739 -1.784868,1.62118 l -0.44794,0.35235 z m -0.688549,-2.24198 c -0.516792,-1.23683 -0.432651,-1.34929 1.315279,-1.75794 2.20236,-0.5149 2.235962,-0.51672 2.29172,-0.12379 0.036,0.25367 -0.229039,0.51929 -1.056,1.05833 -0.607219,0.39582 -1.15049,0.71967 -1.207249,0.71967 -0.0568,0 -0.325831,0.15853 -0.59795,0.35229 l -0.49475,0.3523 z m 4.5948,-0.75913 c -0.384699,-0.42509 -0.890001,-1.98211 -1.026811,-3.16401 -0.14188,-1.22567 0.223991,-3.15421 0.83553,-4.40414 0.620951,-1.26918 1.86772,-2.48171 3.234823,-3.14598 1.12026,-0.54434 1.25261,-0.56847 3.11727,-0.56833 1.75437,1.3e-4 2.04256,0.0448 2.90832,0.45049 1.0866,0.50922 2.51035,1.73517 2.51035,2.16158 0,0.17064 -0.23908,0.36954 -0.60187,0.50072 -0.57211,0.20688 -0.64536,0.18844 -1.48167,-0.3731 -0.48389,-0.3249 -1.28701,-0.72083 -1.78472,-0.87985 -0.77981,-0.24914 -1.04905,-0.26084 -1.94733,-0.0846 -2.02547,0.3973 -3.52221,1.40326 -4.454303,2.99375 -0.40228,0.68644 -0.468738,1.00807 -0.533598,2.58234 -0.0563,1.36727 -0.008,1.99175 0.200027,2.60566 0.150771,0.44407 0.274122,0.82852 0.274122,0.85431 0,0.0258 -0.220282,0.20977 -0.489522,0.40883 -0.466889,0.34518 -0.502068,0.34807 -0.760618,0.0624 z m 1.26188,-1.51208 c -0.326991,-0.94299 -0.384519,-1.38156 -0.317731,-2.42226 0.148212,-2.30944 1.157873,-3.82854 3.184663,-4.79151 1.46584,-0.69646 3.20109,-0.74111 4.473,-0.11509 0.7645,0.37627 2.131,1.57737 2.131,1.87307 0,0.0689 -0.43183,0.16979 -0.95963,0.22426 -1.20265,0.12413 -2.94162,0.96226 -3.70682,1.78657 -0.31507,0.33941 -1.03471,1.26083 -1.5992,2.04761 -0.85672,1.19408 -2.29322,2.54883 -2.702643,2.54883 -0.0568,0 -0.28303,-0.51817 -0.502639,-1.15148 z m -6.33893,0.38786 c -0.054,-0.14059 -0.147842,-1.10139 -0.208651,-2.13513 l -0.110558,-1.87952 0.656198,0.0982 c 0.36091,0.054 1.113401,0.14476 1.672201,0.20167 1.500568,0.15285 1.608669,0.20325 1.608669,0.75005 0,0.47909 -0.008,0.48283 -1.31233,0.59137 -2.31548,0.19274 -2.471979,0.33647 -0.46567,0.42766 1.815071,0.0825 1.86267,0.0948 1.86267,0.48034 0,0.34768 -0.215678,0.47568 -1.778,1.05521 -0.9779,0.36274 -1.788899,0.66094 -1.80222,0.66266 -0.01331,0.002 -0.0684,-0.1119 -0.122309,-0.25249 z m 1.014701,-4.2695 -1.333151,-0.0619 0.11593,-0.8815 c 0.0638,-0.48483 0.18411,-0.95057 0.26743,-1.03498 0.0902,-0.0914 0.856139,0.11776 1.894559,0.51748 1.55271,0.59768 1.74306,0.71615 1.74306,1.08481 0,0.46728 -0.179999,0.49247 -2.687828,0.37607 z m 0.952158,-1.86856 c -1.578189,-0.40603 -1.735669,-0.48241 -1.735669,-0.84187 0,-0.5236 0.444339,-1.56979 0.666721,-1.56979 0.2149,0 3.191999,1.83685 3.324458,2.05117 0.142721,0.23092 -0.0911,0.82894 -0.31959,0.81727 -0.110139,-0.006 -0.9813,-0.21118 -1.93592,-0.45678 z m 0.762,-1.82921 c -1.00118,-0.50826 -1.82033,-0.96039 -1.82033,-1.00474 0,-0.21987 1.073261,-1.78771 1.19413,-1.7444 0.0768,0.0275 0.797632,0.69323 1.601862,1.47937 1.32951,1.29961 1.446059,1.46483 1.284078,1.82033 -0.098,0.21505 -0.236929,0.38707 -0.308779,0.38227 -0.0719,-0.005 -0.94978,-0.42457 -1.950961,-0.93283 z m 14.300203,0.061 c -0.11176,-0.11176 -0.2032,-0.2839 -0.2032,-0.38254 0,-0.2646 2.86889,-3.72321 3.14012,-3.7856 0.30976,-0.0713 2.278551,1.32792 2.278551,1.61932 0,0.12611 -0.24765,0.33436 -0.55034,0.46276 -0.30268,0.1284 -1.388531,0.69457 -2.413001,1.25815 -1.02446,0.56358 -1.90457,1.02613 -1.9558,1.0279 -0.0512,0.002 -0.18457,-0.0882 -0.29633,-0.19999 z m -12.976193,-1.58177 c -1.982309,-1.59778 -1.89016,-1.42338 -1.18649,-2.24546 0.33469,-0.39102 0.697852,-0.70669 0.807011,-0.70149 0.109159,0.005 0.744329,0.78625 1.411499,1.73567 1.120161,1.59405 1.192692,1.7489 0.94742,2.02254 -0.146079,0.16299 -0.349049,0.29068 -0.45103,0.28377 -0.101978,-0.007 -0.78976,-0.49968 -1.52841,-1.09503 z m 11.860523,0.45111 c -0.29005,-0.3205 -0.26507,-0.40043 0.74294,-2.37758 0.5737,-1.12526 1.14751,-2.04593 1.27515,-2.04593 0.26887,0 1.77305,0.98241 1.77305,1.15802 0,0.0649 -0.78548,0.90083 -1.7455,1.85759 -1.70925,1.70342 -1.75173,1.73266 -2.04564,1.4079 z m -10.356433,-1.64757 c -1.82191,-2.25573 -1.734019,-1.98446 -0.838708,-2.5887 0.428588,-0.28925 0.84605,-0.52591 0.927679,-0.52591 0.17099,0 0.883769,1.47095 1.449882,2.99205 0.36904,0.99161 0.37377,1.05832 0.0931,1.31233 -0.162642,0.14719 -0.331522,0.26762 -0.375282,0.26762 -0.0438,0 -0.609259,-0.65582 -1.256671,-1.45739 z m 8.903133,0.78667 c -0.20589,-0.13021 -0.21553,-0.26932 -0.0556,-0.80174 0.30385,-1.01163 1.19073,-3.56656 1.29865,-3.74117 0.11326,-0.18327 1.80006,0.60658 1.80006,0.84289 0,0.2651 -2.44346,3.85532 -2.62467,3.85648 -0.0931,7.9e-4 -0.28143,-0.0698 -0.41843,-0.15646 z m -6.57703,-0.72628 c -0.18393,-0.30268 -0.57027,-1.05965 -0.858552,-1.68215 -0.288272,-0.6225 -0.6012,-1.17944 -0.695391,-1.23766 -0.38376,-0.23717 -0.12283,-0.60387 0.715031,-1.00485 0.487452,-0.23329 0.947732,-0.36272 1.022822,-0.28763 0.0751,0.0751 0.32801,1.08023 0.56203,2.23362 0.40233,1.98291 0.40942,2.10883 0.13015,2.31304 -0.42347,0.30965 -0.50324,0.2792 -0.87609,-0.33437 z m 5.13694,0.0469 c -0.26786,-0.29598 -0.28541,-0.43417 -0.12431,-0.97894 0.10317,-0.34887 0.22804,-1.27413 0.27749,-2.05614 0.0494,-0.78201 0.12212,-1.45405 0.1615,-1.49343 0.0864,-0.0864 2.13651,0.30404 2.13651,0.40686 0,0.2106 -1.74914,4.06523 -1.92826,4.24935 -0.17098,0.17575 -0.27025,0.15151 -0.52293,-0.1277 z m -3.38957,-0.21624 c -0.13934,-0.40517 -0.90104,-3.26326 -1.01066,-3.79227 l -0.11036,-0.53259 1.03595,-0.12024 c 0.56977,-0.0661 1.06376,-0.0924 1.09775,-0.0584 0.034,0.034 0.0179,1.10881 -0.0357,2.38849 -0.0969,2.31078 -0.10032,2.3267 -0.50084,2.3267 -0.22181,0 -0.43605,-0.0952 -0.47608,-0.21166 z m 1.71728,-0.0862 c -0.0437,-0.0707 -0.12732,-0.77557 -0.18581,-1.56633 -0.0585,-0.79077 -0.14619,-1.76161 -0.1949,-2.15742 l -0.0886,-0.71967 h 1.03405 1.03405 l -0.094,0.55033 c -0.1838,1.07642 -0.59736,3.76973 -0.59803,3.89467 -7.9e-4,0.16647 -0.80383,0.16506 -0.90683,-0.002 z m -11.497522,21.67531 c -0.256111,-0.15907 -0.465661,-0.3566 -0.465661,-0.43897 0,-0.1644 1.16972,-1.8038 1.28702,-1.8038 0.217321,0 1.929911,1.2624 1.92772,1.42098 -0.007,0.53689 -0.277749,0.63336 -0.91853,0.32779 -0.68585,-0.32706 -0.642459,-0.34588 -1.195549,0.51855 -0.152561,0.23845 -0.21544,0.23602 -0.635,-0.0246 z m -1.943746,-1.62495 -0.977251,-0.9417 0.377962,-0.38065 0.377963,-0.38065 0.509892,0.48851 0.509899,0.48851 0.39306,-0.36925 c 0.470569,-0.44208 0.59023,-0.45342 0.98784,-0.0936 0.291251,0.26358 0.281051,0.30851 -0.232529,1.02365 -0.87336,1.21614 -0.857559,1.2148 -1.946836,0.16516 z m 23.090739,0.11639 c -0.338431,-0.43438 -0.615281,-0.87253 -0.615241,-0.97366 5e-5,-0.10114 0.38407,-0.51456 0.853371,-0.91872 0.69767,-0.60082 0.89839,-0.69741 1.10059,-0.5296 0.35752,0.29671 0.30629,0.5594 -0.19391,0.99432 l -0.4412,0.38362 0.47179,0.49244 0.47179,0.49244 -0.39877,0.42448 c -0.21933,0.23346 -0.4515,0.42447 -0.51594,0.42447 -0.0644,0 -0.39406,-0.3554 -0.73248,-0.78979 z m 1.49871,-0.73713 c -0.30127,-0.33289 -0.29685,-0.3544 0.17367,-0.84552 l 0.48281,-0.50394 -0.36925,-0.39306 c -0.44743,-0.47626 -0.46011,-0.65985 -0.07,-1.01292 0.27758,-0.25121 0.36419,-0.22137 1.19411,0.41149 0.77301,0.58945 0.86609,0.72073 0.68377,0.96427 -0.37003,0.49429 -1.5663,1.72127 -1.67819,1.72127 -0.0593,0 -0.24694,-0.15371 -0.41696,-0.34159 z m -26.289328,-1.16537 -0.362982,-0.49096 0.881473,-0.68765 0.88147,-0.68765 0.804333,0.79124 c 0.865071,0.85099 0.94859,1.06612 0.544211,1.40173 -0.217641,0.18062 -0.34209,0.13735 -0.762,-0.26495 l -0.501877,-0.48083 -0.474933,0.45501 c -0.261212,0.25026 -0.513582,0.45502 -0.560821,0.45502 -0.04724,0 -0.249232,-0.22093 -0.448874,-0.49096 z m -1.254575,-1.75271 c -0.854477,-1.2967 -0.88873,-1.45615 -0.364153,-1.69516 0.382783,-0.17441 0.472275,-0.15961 0.63166,0.10448 0.542169,0.89833 0.539594,0.89704 1.116095,0.55823 0.51753,-0.30415 0.53875,-0.30415 0.769189,0 0.130333,0.17203 0.239397,0.40154 0.242361,0.51003 0.0047,0.1719 -1.513727,1.41142 -1.728994,1.41142 -0.04419,0 -0.343959,-0.40005 -0.666158,-0.889 z m 29.239873,0.36748 c -0.37253,-0.28165 -0.74367,-0.57828 -0.82476,-0.65918 -0.13311,-0.1328 0.98227,-2.20597 1.18682,-2.20597 0.046,0 0.23107,0.079 0.41139,0.17546 0.3235,0.17313 0.32333,0.18431 -0.0121,0.84182 l -0.33995,0.66636 0.50897,0.2632 c 0.57418,0.29692 0.62575,0.52041 0.24536,1.06349 -0.33289,0.47527 -0.35942,0.47199 -1.17573,-0.14518 z m 1.31233,-1.04907 c -0.44029,-0.20165 -0.46986,-0.41434 -0.12161,-0.87477 0.35791,-0.47321 0.30775,-0.75229 -0.17472,-0.97212 -0.45556,-0.20756 -0.52428,-0.48016 -0.25017,-0.99234 0.16985,-0.31738 0.19006,-0.31693 1.05833,0.0232 0.48685,0.19074 0.94999,0.40998 1.02922,0.4872 0.15318,0.14931 -0.65049,2.09736 -0.9704,2.35221 -0.11256,0.0897 -0.34451,0.0802 -0.57065,-0.0234 z m -29.955631,-1.03701 c -0.318841,-0.66862 -0.504711,-0.73574 -1.000006,-0.36112 -0.180781,0.13674 -0.383889,0.25104 -0.45135,0.254 -0.209592,0.009 -0.676171,-1.04177 -0.526756,-1.18653 0.148201,-0.14358 1.963867,-0.86015 2.011185,-0.79373 0.01503,0.0211 0.225621,0.47806 0.468016,1.01553 0.242396,0.53746 0.463254,1.02347 0.490797,1.08001 0.02754,0.0565 -0.11894,0.21502 -0.325522,0.35219 -0.356425,0.23666 -0.390446,0.21826 -0.666364,-0.36035 z m -2.348349,-1.80096 c -0.133162,-0.21547 -0.767678,-2.41189 -0.712655,-2.46692 0.02183,-0.0218 0.235582,-0.0888 0.475038,-0.14893 0.388742,-0.0976 0.464363,-0.0355 0.706036,0.57976 0.258836,0.65894 0.291359,0.68117 0.744577,0.50885 0.391417,-0.14881 0.511641,-0.12859 0.690618,0.11618 0.379791,0.51939 0.239337,0.74825 -0.71946,1.17227 -1.077299,0.47643 -1.041713,0.46926 -1.184154,0.23879 z m 32.96268,-0.2565 c -0.66598,-0.30247 -0.88091,-0.48188 -0.80724,-0.67386 0.0552,-0.1439 0.22142,-0.67791 0.36932,-1.18669 0.2639,-0.90777 0.44257,-1.06291 0.89432,-0.77655 0.17509,0.11098 0.18719,0.28422 0.0536,0.76789 -0.1847,0.66891 -0.23027,0.61893 0.93521,1.02577 0.25379,0.0886 -0.0798,1.28002 -0.35435,1.26541 -0.1008,-0.005 -0.5917,-0.19525 -1.0909,-0.42197 z m 0.90904,-1.42866 c -0.0568,-0.0919 -0.0295,-0.43419 0.0607,-0.76067 0.17763,-0.6433 0.16399,-0.66476 -0.52773,-0.83009 -0.38467,-0.0919 -0.46566,-0.20316 -0.46566,-0.63946 v -0.52816 l 1.13736,0.11653 c 0.62555,0.0641 1.16551,0.14467 1.19992,0.17908 0.0344,0.0344 -0.066,0.64019 -0.22303,1.34619 -0.25622,1.15167 -0.32633,1.28363 -0.68192,1.28363 -0.21799,0 -0.44281,-0.0752 -0.49959,-0.16705 z m -33.209748,-0.80661 c -0.08987,-0.34925 -0.236659,-0.6243 -0.326197,-0.61123 -0.08954,0.0131 -0.401206,0.0743 -0.692597,0.13595 -0.498496,0.10554 -0.534945,0.0791 -0.616836,-0.44711 -0.04787,-0.3076 -0.03472,-0.61595 0.02921,-0.68523 0.06394,-0.0693 0.570116,-0.17309 1.124839,-0.23071 l 1.008583,-0.10477 0.266706,1.19764 c 0.227515,1.02164 0.231701,1.21106 0.02848,1.28904 -0.490669,0.18829 -0.663217,0.0742 -0.822195,-0.54358 z m -1.846834,-2.62437 c -0.05691,-0.30335 -0.07947,-0.93233 -0.05015,-1.39775 0.04895,-0.77683 0.09066,-0.85053 0.508749,-0.89881 0.425431,-0.0491 0.458893,-0.005 0.508,0.67733 0.05116,0.71033 0.06962,0.73134 0.687572,0.78249 0.576832,0.0477 0.635,0.0979 0.635,0.5471 0,0.52877 -0.04693,0.5525 -1.473851,0.74509 -0.695459,0.0939 -0.714237,0.0834 -0.815324,-0.45545 z m 35.563182,0.43754 c -1.33924,-0.17145 -1.28965,-0.11287 -1.23499,-1.4589 0.0478,-1.17798 0.0651,-1.22261 0.47299,-1.22261 0.37698,0 0.42903,0.0788 0.4754,0.71967 0.052,0.71814 0.0535,0.71967 0.72989,0.71967 h 0.67782 l -0.0525,0.63359 c -0.0555,0.6693 -0.15438,0.72561 -1.06856,0.60858 z m -34.290007,-2.33159 v -0.77325 H 71.72011 c -0.717675,0 -0.79565,-0.1338 -0.569617,-0.97745 0.108138,-0.40361 0.149241,-0.40582 1.804398,-0.0968 0.471075,0.088 0.472604,0.0927 0.423333,1.30092 -0.04824,1.18299 -0.06084,1.21396 -0.515114,1.26623 -0.447837,0.0515 -0.465667,0.024 -0.465667,-0.71966 z m 34.342077,0.0311 c -0.0505,-0.69856 -0.0707,-0.7212 -0.68707,-0.77222 -0.57541,-0.0476 -0.635,-0.0985 -0.635,-0.54266 0,-0.52189 0.23167,-0.6203 1.69333,-0.7193 l 0.59267,-0.0402 0.0492,1.397 0.0492,1.397 h -0.50511 c -0.4732,0 -0.50841,-0.0455 -0.55718,-0.71967 z m -34.500417,-2.35229 c -0.506188,-0.0834 -0.946235,-0.1775 -0.977884,-0.20915 -0.150969,-0.15097 0.532807,-2.64556 0.725159,-2.64556 0.623634,0 0.765527,0.20238 0.655646,0.93512 -0.105892,0.70613 -0.09539,0.72689 0.425661,0.84133 0.474853,0.10429 0.528461,0.17532 0.482328,0.63907 -0.06142,0.61738 -0.116697,0.6359 -1.31091,0.43919 z m 33.102847,-0.007 c -0.0406,-0.12284 -0.162,-0.67143 -0.26976,-1.2191 -0.15976,-0.81197 -0.15379,-1.02245 0.0323,-1.14041 0.42974,-0.27234 0.63631,-0.14949 0.74778,0.4447 0.13873,0.73949 0.2395,0.80258 0.90901,0.56919 0.29485,-0.10278 0.56019,-0.15902 0.58965,-0.12497 0.0295,0.0341 0.10427,0.34262 0.16626,0.6857 l 0.1127,0.62379 -0.80991,0.11011 c -0.44544,0.0606 -0.94362,0.14706 -1.10707,0.19222 -0.16344,0.0452 -0.33039,-0.0184 -0.371,-0.14123 z m -32.330957,-1.45956 c -0.05266,-0.0852 -0.02394,-0.40521 0.06378,-0.71113 0.195008,-0.67995 0.134683,-0.79018 -0.509942,-0.93176 -0.541952,-0.11904 -0.657064,-0.50168 -0.333055,-1.1071 0.166941,-0.31193 0.198109,-0.31303 0.889,-0.0312 1.423164,0.58053 1.383411,0.51148 1.005469,1.74629 -0.251854,0.82284 -0.415536,1.09837 -0.675923,1.1378 -0.188976,0.0286 -0.386675,-0.0177 -0.439332,-0.1029 z m 33.118377,-0.75347 c -0.13012,-0.49582 -0.20654,-0.55033 -0.77156,-0.55033 -0.59876,0 -0.94769,-0.25483 -0.95377,-0.69654 -0.002,-0.15274 1.77404,-1.08146 2.06825,-1.08146 0.15352,0 0.83271,2.53207 0.72565,2.7053 -0.0589,0.0954 -0.29097,0.17337 -0.51565,0.17337 -0.31835,0 -0.44036,-0.12144 -0.55292,-0.55034 z m -32.673594,-2.24383 c -0.48895,-0.2222 -0.889,-0.44831 -0.889,-0.50248 0,-0.0542 0.268521,-0.63168 0.596707,-1.28338 0.529461,-1.05136 0.633357,-1.16528 0.921904,-1.01086 0.505272,0.27042 0.549312,0.45824 0.245295,1.04614 -0.271513,0.52505 -0.268557,0.55603 0.08001,0.83828 0.19907,0.1612 0.443243,0.32019 0.542607,0.35331 0.233807,0.0779 -0.162292,0.98658 -0.424042,0.97274 -0.101465,-0.005 -0.584533,-0.19156 -1.073483,-0.41375 z m 30.171084,-0.69066 c -0.48202,-1.02507 -0.49853,-1.1189 -0.2228,-1.26647 0.46908,-0.25104 0.60302,-0.19465 0.82805,0.34863 0.23448,0.56607 0.45536,0.62694 0.94131,0.25939 0.18078,-0.13674 0.38389,-0.25104 0.45135,-0.254 0.11845,-0.005 0.63934,0.88788 0.63934,1.09619 0,0.10628 -1.77921,0.93312 -1.99449,0.92688 -0.0672,-0.002 -0.35644,-0.50173 -0.64276,-1.11062 z m -28.907481,-0.42668 c -0.288121,-0.16768 -0.286078,-0.20313 0.04233,-0.73451 0.440518,-0.71277 0.440254,-0.71443 -0.162935,-1.02635 -0.587426,-0.30377 -0.623353,-0.51746 -0.183259,-1.09004 l 0.317212,-0.4127 0.864357,0.65916 c 0.475395,0.36255 0.864356,0.71824 0.864356,0.79042 0,0.20938 -1.183036,2.00103 -1.317537,1.99534 -0.06699,-0.003 -0.258025,-0.0844 -0.424527,-0.18132 z m 29.597401,-0.99886 c -0.30739,-0.59443 -0.30885,-0.59477 -0.94542,-0.21874 -0.4687,0.27687 -0.50042,0.27505 -0.74041,-0.0423 -0.1379,-0.18238 -0.25315,-0.41058 -0.25612,-0.50712 -0.005,-0.15401 1.55993,-1.43314 1.75304,-1.43314 0.0406,0 0.39499,0.50844 0.78746,1.12987 0.67209,1.06417 0.69571,1.14293 0.40615,1.35466 -0.46913,0.34304 -0.71699,0.27317 -1.0047,-0.2832 z m -28.512776,-1.87884 -0.871011,-0.69351 0.674343,-0.80543 c 1.056519,-1.26189 1.148543,-1.31371 1.575261,-0.88699 l 0.364029,0.36403 -0.488511,0.50989 -0.488516,0.5099 0.397201,0.4228 c 0.341548,0.36356 0.370067,0.48235 0.203546,0.84781 -0.1065,0.23375 -0.261522,0.42501 -0.344484,0.42501 -0.08297,0 -0.542801,-0.31208 -1.021858,-0.69351 z m 25.500746,-0.11664 c -0.86322,-0.87639 -0.93614,-1.06571 -0.53785,-1.39627 0.21764,-0.18062 0.3421,-0.13735 0.762,0.26495 l 0.50188,0.48083 0.51407,-0.49251 0.51408,-0.49252 0.41368,0.50317 0.41368,0.50316 -0.80075,0.71619 c -0.44042,0.3939 -0.84172,0.71775 -0.89179,0.71966 -0.0501,0.002 -0.45012,-0.36108 -0.889,-0.80666 z m -23.907934,-0.54005 c -0.31011,-0.34267 -0.30708,-0.35809 0.16809,-0.85405 l 0.483899,-0.50509 -0.497347,-0.52188 -0.497351,-0.52189 0.508,-0.40813 0.508,-0.40814 0.544819,0.63369 c 0.873001,1.0154 0.86803,1.16414 -0.0702,2.10235 l -0.832109,0.83211 z m 22.349643,-1.01861 c -0.35469,-0.39193 -0.2617,-0.66222 0.580011,-1.68603 l 0.47973,-0.5835 0.99329,0.95711 0.99329,0.95711 -0.37796,0.38065 -0.37796,0.38065 -0.51104,-0.48961 -0.51104,-0.4896 -0.47859,0.45852 -0.47858,0.45851 z m -20.652592,-1.46554 c -0.330232,-0.4325 -0.596191,-0.87065 -0.59101,-0.97367 0.01,-0.19632 1.866461,-1.45732 2.145638,-1.45732 0.0887,0 0.2462,0.18644 0.350023,0.41431 0.171087,0.3755 0.13466,0.44775 -0.388951,0.77136 l -0.57772,0.35705 0.285819,0.59938 c 0.273542,0.5736 0.27183,0.60961 -0.0396,0.83731 -0.469468,0.34328 -0.521909,0.31899 -1.18423,-0.54842 z m 18.915242,0.18662 c -0.91657,-0.60065 -1.07006,-0.90187 -0.64097,-1.25799 0.19929,-0.16539 0.34782,-0.13479 0.75579,0.15571 l 0.50775,0.36155 0.38421,-0.58611 c 0.38,-0.5797 0.38934,-0.58309 0.85288,-0.30927 0.257771,0.15227 0.468681,0.38095 0.468681,0.50818 0,0.2463 -1.153001,1.73354 -1.332741,1.71908 -0.0586,-0.005 -0.50665,-0.27073 -0.9956,-0.59115 z m -17.303813,-0.46235 c -0.19813,-0.31726 -0.162758,-0.40045 0.350211,-0.82372 l 0.5706,-0.47083 -0.30162,-0.53795 c -0.165891,-0.29588 -0.280191,-0.55605 -0.254,-0.57816 0.26737,-0.22568 1.14721,-0.56067 1.209188,-0.46039 0.268732,0.43481 0.76005,1.9914 0.656302,2.07929 -0.0685,0.058 -0.54883,0.3393 -1.067411,0.62507 -0.94066,0.51835 -0.943398,0.51875 -1.16327,0.16669 z m 15.338853,-0.67692 c -0.27642,-0.20212 -0.27715,-0.25534 -0.0122,-0.889 0.15498,-0.3707 0.34765,-0.84705 0.42816,-1.05856 l 0.14637,-0.38456 1.18817,0.59835 c 1.21927,0.61402 1.35645,0.80723 0.95902,1.35075 -0.21535,0.29452 -0.25328,0.29646 -0.63034,0.0324 -0.56299,-0.39434 -0.91731,-0.35017 -1.1417,0.14232 -0.21393,0.46953 -0.49486,0.53196 -0.93744,0.20834 z m -13.044733,-1.32821 c -0.248758,-0.5736 -0.420079,-1.07513 -0.380698,-1.11451 0.0394,-0.0394 0.594138,-0.25554 1.232818,-0.48036 1.0731,-0.37774 1.177311,-0.38738 1.37291,-0.12698 0.29659,0.39485 0.26344,0.71942 -0.0847,0.82881 -1.004602,0.31572 -1.047091,0.36104 -0.88111,0.93978 0.170061,0.59295 0.104939,0.7216 -0.449749,0.88862 -0.309211,0.0931 -0.41797,-0.0326 -0.809501,-0.93536 z m 11.326693,0.72147 c -1.12624,-0.37112 -1.2546,-0.47056 -1.14559,-0.88742 0.0819,-0.31327 0.17674,-0.34153 0.82141,-0.24485 0.72828,0.10921 0.72888,0.10885 0.84167,-0.49235 0.12058,-0.64273 0.30961,-0.71903 1.00098,-0.40402 0.47386,0.21591 0.46882,0.29971 -0.0976,1.62271 -0.16948,0.39582 -0.36799,0.71185 -0.44115,0.7023 -0.0732,-0.01 -0.51402,-0.14292 -0.97969,-0.29637 z m -9.675434,-0.44826 c -0.162959,-0.42467 0.0512,-0.70829 0.620832,-0.82222 0.533249,-0.10665 0.54007,-0.12012 0.430549,-0.85044 -0.110538,-0.73718 -0.107591,-0.74266 0.446391,-0.82889 0.306712,-0.0477 0.605572,-0.0378 0.664122,0.022 0.0586,0.0599 0.1561,0.57196 0.21677,1.13799 l 0.11032,1.02915 -1.018551,0.28318 c -1.246561,0.34658 -1.347862,0.34859 -1.470433,0.0292 z m 7.329114,-0.20309 c -0.25035,-0.0659 -0.29343,-0.18714 -0.21167,-0.59596 0.0565,-0.28231 0.10383,-0.71331 0.10525,-0.95779 0.005,-0.81307 0.15451,-0.87968 1.35803,-0.60407 1.55703,0.35656 1.51257,0.32814 1.35985,0.86932 -0.0738,0.26158 -0.20176,0.46489 -0.28433,0.45181 -0.0826,-0.0131 -0.39425,-0.0755 -0.6926,-0.13872 -0.50709,-0.10746 -0.55194,-0.0783 -0.68803,0.44685 -0.14591,0.56309 -0.3602,0.68276 -0.9465,0.52856 z m -4.41047,-0.19348 c -0.11308,-0.18297 -0.42275,-2.12483 -0.35097,-2.20088 0.0298,-0.0316 0.67538,-0.10002 1.43458,-0.15206 l 1.38038,-0.0946 -0.0549,0.57539 c -0.0508,0.53234 -0.10562,0.58173 -0.73227,0.66006 -0.60382,0.0755 -0.6833,0.13957 -0.73237,0.59053 -0.0549,0.5042 -0.27185,0.75662 -0.65463,0.76154 -0.11092,10e-4 -0.24133,-0.0616 -0.28979,-0.13997 z m 2.31179,0.0172 c -0.99416,-0.0565 -1.05833,-0.0853 -1.05833,-0.47537 0,-0.3811 0.16884,-0.50439 0.58175,-0.42483 0.0871,0.0168 0.33478,-0.0137 0.55033,-0.0678 0.3299,-0.0828 0.39192,-0.20817 0.39192,-0.79222 0,-0.63692 0.0313,-0.68548 0.381,-0.59176 0.20955,0.0562 0.5158,0.10315 0.68056,0.10442 0.22067,0.002 0.27885,0.10265 0.22091,0.38331 -0.0433,0.20955 -0.12558,0.74295 -0.18294,1.18533 -0.0623,0.48072 -0.18527,0.79121 -0.30557,0.77171 -0.11071,-0.0179 -0.67754,-0.0597 -1.25963,-0.0927 z m 14.185941,30.24543 c 0.34992,-0.10484 0.85406,-0.36529 1.12031,-0.57879 l 0.48409,-0.38816 -0.50099,-0.52568 -0.50099,-0.52569 -0.8774,0.97747 c -1.10605,1.23218 -1.05159,1.4383 0.27498,1.04085 z m -28.718564,-0.69839 c -0.774882,-0.86543 -0.752297,-0.85486 -1.163074,-0.5446 -0.325376,0.24576 -0.325376,0.25093 0,0.51105 0.414698,0.33153 1.272548,0.7379 1.576068,0.74659 0.127254,0.004 -0.05859,-0.31722 -0.412994,-0.71304 z m -1.93607,-0.54957 c 0.820913,-0.60565 0.856742,-0.73439 0.394134,-1.41608 -0.228163,-0.33621 -0.52596,-0.84111 -0.66177,-1.12199 -0.135808,-0.28088 -0.379881,-0.68344 -0.542383,-0.89459 l -0.295455,-0.3839 -0.907753,0.91917 c -0.861621,0.87246 -0.901671,0.95159 -0.788062,1.55719 0.157496,0.83953 1.066975,1.76277 1.736484,1.76277 0.270621,0 0.749785,-0.19016 1.064805,-0.42257 z m 34.717374,0.0818 c 0.60447,-0.43042 1.11804,-1.68999 0.87185,-2.13827 -0.21414,-0.38993 -2.20005,-2.35567 -2.27567,-2.25258 -0.3354,0.45722 -1.64719,2.91598 -1.64719,3.08742 0,0.12441 0.20955,0.41928 0.46567,0.65525 1.16141,1.07007 1.77633,1.22424 2.58534,0.64818 z m -39.012799,-1.62899 c 0.902888,-0.60609 2.941785,-2.62023 2.941785,-2.90606 0,-0.16218 -0.830625,-2.44519 -0.923634,-2.53866 -0.02655,-0.0267 -0.724947,0.60935 -1.551987,1.41341 -0.827043,0.80406 -2.056162,1.92847 -2.731379,2.4987 -1.576623,1.33147 -1.649698,1.83811 -0.311113,2.15699 0.833176,0.19848 1.642849,0.002 2.576328,-0.62438 z m 44.555459,0.33822 c 0.58349,-0.36587 0.45015,-0.75976 -0.50817,-1.50109 -0.48157,-0.37254 -1.87486,-1.64709 -3.09621,-2.83235 l -2.22062,-2.15501 -0.32126,0.96968 c -0.17669,0.53332 -0.37733,1.15373 -0.44585,1.37869 -0.10766,0.35346 0.0642,0.60297 1.26526,1.83667 1.73287,1.78 2.53413,2.42313 3.22236,2.58642 0.66732,0.15833 1.60084,0.0328 2.10449,-0.28301 z m -49.718541,-0.42811 c 1.20586,-0.64063 3.124454,-2.18775 5.365618,-4.32673 1.63667,-1.56205 1.740378,-1.7004 1.627179,-2.17067 -0.0665,-0.27626 -0.142227,-0.52798 -0.168285,-0.55938 -0.02606,-0.0314 -0.720191,0.48927 -1.542513,1.15705 -0.822323,0.66777 -2.066632,1.59415 -2.765132,2.05861 -2.360681,1.56973 -6.093293,3.19143 -7.345584,3.19143 -0.839261,0 -0.23226,0.41349 1.334251,0.90889 1.589257,0.5026 2.13701,0.46197 3.494466,-0.2592 z m 54.822531,0.36001 c 0.68468,-0.18973 1.48324,-0.47167 1.7746,-0.62653 l 0.52974,-0.28156 -0.90356,-0.13617 c -2.8304,-0.42657 -7.2176,-2.88231 -10.88817,-6.09469 l -1.12373,-0.98346 -0.0825,0.55069 c -0.0761,0.50805 0.0437,0.67982 1.54706,2.21861 2.76936,2.8346 5.1867,4.74959 6.79421,5.38231 0.96221,0.37873 0.87642,0.3798 2.35233,-0.0292 z m -60.34138,-1.36014 c 1.637276,-0.22773 3.826727,-0.98753 5.581875,-1.93708 2.682298,-1.45114 6.881834,-4.69755 6.530809,-5.04858 -0.114324,-0.11432 -0.471948,0.0298 -1.086602,0.43791 -1.584894,1.05231 -3.704942,2.1162 -5.022366,2.52033 -1.650846,0.50642 -3.768479,0.51864 -4.973711,0.0287 l -0.825045,-0.33539 -2.561622,0.63092 c -1.40889,0.34701 -3.152172,0.7301 -3.873955,0.85131 -0.721783,0.1212 -1.312333,0.27924 -1.312333,0.3512 0,0.26844 1.850604,1.51529 2.854438,1.92318 0.908916,0.36933 2.194926,0.67559 3.102309,0.73882 0.156244,0.0109 0.870037,-0.0617 1.586203,-0.16131 z m 65.4158,0.004 c 0.59221,-0.0961 1.57481,-0.40056 2.18356,-0.67658 1.03261,-0.4682 2.75103,-1.62833 2.75103,-1.85725 0,-0.0558 -0.5526,-0.19437 -1.22799,-0.30786 -0.67539,-0.11348 -2.45721,-0.4964 -3.95959,-0.85092 -2.72147,-0.64219 -2.73437,-0.64349 -3.47842,-0.35123 -2.45619,0.9648 -5.45377,0.32451 -9.05221,-1.93359 -2.71031,-1.70077 -3.22325,-1.65998 -1.17633,0.0936 3.74938,3.21197 8.0144,5.45365 11.18987,5.88136 1.45477,0.19595 1.57732,0.19606 2.77008,0.003 z m -59.107673,-4.65957 c 0.717341,-0.24042 1.990056,-0.83164 2.828256,-1.31381 l 1.524,-0.87668 -1.778,-0.0475 c -1.676122,-0.0448 -1.896253,-0.009 -3.841803,0.62294 -1.135092,0.36878 -2.678142,0.80858 -3.429,0.97735 -0.750858,0.16876 -1.365197,0.3558 -1.365197,0.41563 0,0.0598 0.17145,0.16303 0.381,0.22932 0.20955,0.0663 0.7239,0.22733 1.143,0.35787 1.049197,0.32681 2.923267,0.17603 4.537744,-0.36508 z m 55.279263,0.15432 c 0.44238,-0.16565 0.80346,-0.3419 0.8024,-0.39166 -0.001,-0.0498 -0.72197,-0.2644 -1.60202,-0.47697 -0.88004,-0.21256 -2.38413,-0.65038 -3.3424,-0.97292 -1.53913,-0.51804 -1.9459,-0.58652 -3.48798,-0.58718 -1.05067,-5.3e-4 -1.70636,0.0628 -1.64695,0.15896 0.13177,0.21322 2.51605,1.53817 3.47544,1.93131 1.98139,0.81194 4.1926,0.94094 5.80151,0.33846 z m -59.817007,-1.32588 c 2.568649,-0.62751 3.956703,-1.10929 3.760687,-1.30531 -0.105889,-0.10588 -0.396494,-0.0995 -0.819386,0.0179 -0.921911,0.25598 -1.884825,0.22789 -2.941116,-0.0858 -0.853675,-0.25352 -1.009867,-0.24911 -2.613065,0.0738 -2.359522,0.47528 -2.698281,0.51966 -4.287453,0.56174 -0.76835,0.0203 -1.397,0.0865 -1.397,0.14701 0,0.17686 1.361157,0.73356 2.624666,1.07346 0.773385,0.20805 3.952124,-0.0625 5.672667,-0.48282 z m 66.050137,0.10727 c 0.86448,-0.33463 1.95745,-1.00539 1.34453,-0.82515 -0.49521,0.14564 -3.93531,-0.19549 -5.58013,-0.55333 -1.57203,-0.34201 -1.72079,-0.34768 -2.56246,-0.0977 -1.04018,0.30891 -2.16998,0.33865 -3.09604,0.0815 -0.43111,-0.11971 -0.71248,-0.12478 -0.82243,-0.0148 -0.2529,0.2529 3.68694,1.38024 6.21906,1.77952 1.19091,0.18778 3.56002,-0.007 4.49747,-0.36999 z m -74.34747,-0.0935 c 0,-0.0374 -0.249799,-0.21533 -0.555112,-0.39547 -0.376074,-0.22188 -1.045107,-0.36485 -2.074333,-0.44326 -1.798484,-0.13701 -4.045551,-0.50703 -5.921889,-0.97514 -1.179462,-0.29426 -1.77945,-0.48837 -3.386666,-1.09565 -0.338564,-0.12793 -0.338564,-0.12785 -2.65e-4,0.25678 0.813549,0.92526 3.372152,2.12697 5.41904,2.54518 0.679265,0.13879 6.519333,0.23514 6.519333,0.10756 z m 82.96276,-0.27694 c 1.57839,-0.37837 3.05983,-1.05194 4.28624,-1.94885 0.96296,-0.70423 1.05151,-1.01161 0.16934,-0.58781 -1.5966,0.76702 -6.11474,1.76606 -8.89575,1.967 -1.19467,0.0863 -1.7194,0.20639 -2.23792,0.51205 l -0.67733,0.39929 2.96333,2.7e-4 c 2.39164,2.6e-4 3.23897,-0.0657 4.39209,-0.34209 z m -79.91476,-1.08709 c 0.9779,-0.13202 2.196367,-0.33127 2.707703,-0.44279 l 0.929706,-0.20276 -0.415501,-0.27357 c -0.228524,-0.15047 -0.733833,-0.54812 -1.122911,-0.88368 l -0.707408,-0.61011 -1.076793,0.22321 c -2.08003,0.43116 -4.571974,0.743 -5.937441,0.743 h -1.379056 l 0.393697,0.41908 c 0.474671,0.50526 1.511168,0.9217 2.738335,1.10018 1.371372,0.19946 1.932593,0.18894 3.869669,-0.0726 z m 74.69415,-0.19756 c 0.90667,-0.26903 1.84452,-0.8114 1.84452,-1.0667 0,-0.0732 -0.93345,-0.18031 -2.07433,-0.23793 -1.14089,-0.0576 -3.00808,-0.28285 -4.14932,-0.50052 l -2.07498,-0.39577 -0.36061,0.38385 c -0.19833,0.21112 -0.65975,0.59116 -1.02538,0.84454 -0.46419,0.32168 -0.59789,0.49695 -0.44308,0.58084 0.20462,0.11089 2.81904,0.56605 4.20103,0.7314 1.00831,0.12063 3.12418,-0.0554 4.08215,-0.33971 z m -81.685135,-0.59135 c -0.397992,-0.41537 -0.968365,-0.85659 -1.267489,-0.9805 -0.299125,-0.1239 -0.695839,-0.47117 -0.881584,-0.77172 -0.318939,-0.51605 -0.434404,-0.56316 -2.075834,-0.84695 -2.609913,-0.45123 -5.336968,-1.17203 -7.001007,-1.85045 -0.817827,-0.33342 -1.523286,-0.5699 -1.567688,-0.5255 -0.0444,0.0444 0.473811,0.61795 1.151583,1.27455 0.968941,0.93867 1.598925,1.37107 2.94766,2.02318 0.94344,0.45616 2.210644,0.98923 2.81601,1.1846 1.123667,0.36266 6.344568,1.37159 6.560654,1.26784 0.02273,-0.0109 -0.284311,-0.35969 -0.682305,-0.77505 z m 88.346165,-0.16783 c 1.75709,-0.44696 4.22945,-1.47985 5.3966,-2.25457 0.94583,-0.6278 2.65622,-2.23459 2.65622,-2.49532 0,-0.0811 -0.28575,-0.0239 -0.635,0.12718 -2.34013,1.01197 -5.15779,1.7788 -8.3826,2.28134 -1.21031,0.18861 -1.34003,0.24843 -1.65941,0.7652 -0.19056,0.30832 -0.50119,0.6097 -0.69029,0.66971 -0.29207,0.0927 -2.01003,1.65251 -2.01003,1.82499 0,0.11121 3.96614,-0.57299 5.32451,-0.91853 z m -74.698399,0.36581 c -0.397549,-0.18049 -0.923234,-0.61743 -1.196221,-0.99428 -0.405048,-0.55915 -0.538916,-0.64323 -0.795493,-0.49964 -0.169672,0.095 -0.718392,0.13033 -1.219377,0.0786 -1.058,-0.1092 -1.043147,0.0266 0.07452,0.68164 1.069745,0.62692 2.346712,1.05164 3.168457,1.05383 l 0.677336,0.002 -0.709221,-0.32199 z m 8.244552,0.2275 0.592667,-0.0982 v -2.33425 -2.33426 l -1.464334,-0.0834 c -1.847152,-0.10525 -2.801655,-0.56636 -3.168301,-1.53056 -0.423958,-1.11492 -0.118933,-1.67699 2.148777,-3.95959 2.871229,-2.89009 4.092524,-5.09344 4.092524,-7.38338 0,-1.98473 -1.228518,-3.37667 -3.843864,-4.3552 -1.507913,-0.56418 -3.981571,-0.97405 -9.702802,-1.60768 -7.241165,-0.80196 -7.155514,-0.7878 -12.446,-2.05739 -6.890899,-1.65364 -11.873246,-3.15442 -17.356667,-5.22814 -9.146329,-3.45897 -17.753129,-8.0014199 -24.04094,-12.6882102 -2.17018,-1.6176 -2.164923,-1.61541 -1.617617,-0.67137 1.828342,3.1537003 4.883682,6.0311003 10.07989,9.4928602 8.143245,5.4251 20.649655,10.3217 35.56,13.92271 5.992794,1.44732 7.476281,1.71373 10.485186,1.88297 2.846944,0.16012 3.447839,0.26049 4.341374,0.72517 1.02621,0.53367 1.793081,1.76079 1.809414,2.89536 0.01381,0.95874 -0.477216,1.83639 -1.909797,3.4136 -2.778649,3.05916 -3.451672,4.44609 -3.448082,7.10558 0.0026,1.92858 0.404715,3.15526 1.274106,3.88681 0.442132,0.37203 1.953432,0.80765 3.449799,0.99439 0.860417,0.10737 4.537843,0.11607 5.164667,0.0122 z m 46.867597,-0.29515 c 1.43455,-0.37583 1.81197,-0.6584 2.35105,-1.76025 0.81055,-1.65669 0.73891,-4.62011 -0.15455,-6.39401 -0.45437,-0.90209 -1.12059,-1.75126 -2.68269,-3.41936 -2.0555,-2.19499 -2.40351,-3.27197 -1.58687,-4.91077 0.4456,-0.89421 1.19267,-1.51488 2.28013,-1.89439 0.32597,-0.11375 1.91567,-0.27985 3.53266,-0.3691 2.28119,-0.12592 3.53338,-0.29279 5.588,-0.74467 17.28278,-3.80106 30.51392,-8.68824 40.07067,-14.8009 2.41248,-1.54305 6.34519,-4.6270999 7.5963,-5.9570199 1.16289,-1.23618 3.2884,-4.3195403 3.10443,-4.5034903 -0.0412,-0.0412 -0.32036,0.13169 -0.62042,0.38417 -0.30006,0.25247 -1.43357,1.08872 -2.51893,1.8583303 -8.74857,6.2034299 -19.65901,11.2706999 -32.28404,14.9940599 -3.93209,1.15964 -12.12257,3.11193 -14.39333,3.4308 -1.02447,0.14386 -3.97683,0.49336 -6.56081,0.77667 -7.75033,0.84976 -9.88399,1.39509 -11.62991,2.97242 -0.97616,0.8819 -1.434,2.08727 -1.30747,3.44222 0.20452,2.19014 2.215,5.38363 4.75594,7.55442 2.98949,2.554 1.69839,5.01625 -2.51428,4.79496 l -1.37014,-0.072 v 2.47776 2.47776 l 3.64067,-0.0296 c 2.75753,-0.0224 3.8985,-0.0971 4.70359,-0.30806 z m 3.66437,-0.26951 c 0.56652,-0.28373 1.20094,-0.64987 1.40982,-0.81364 0.37137,-0.29117 0.35031,-0.29787 -0.95025,-0.30217 -1.30441,-0.004 -1.33671,0.006 -1.67655,0.52421 -0.19059,0.29074 -0.67737,0.69586 -1.08175,0.90027 l -0.73523,0.37165 1.00196,-0.0822 c 0.64765,-0.0531 1.36622,-0.26465 2.032,-0.5981 z m -67.157759,-1.37968 c 2.752555,-0.41991 2.939232,-0.49387 2.301332,-0.91184 -0.412123,-0.27004 -0.652211,-0.28788 -2.08761,-0.15518 -2.42289,0.224 -4.855448,0.15747 -6.096677,-0.16674 -1.319919,-0.34476 -1.559923,-0.2098 -1.151184,0.64733 0.195982,0.41098 0.447845,0.63632 0.836504,0.74843 0.964605,0.27822 3.797308,0.20418 6.197635,-0.162 z m 79.340059,0.11976 c 0.58771,-0.24555 1.13512,-1.18153 0.85252,-1.45762 -0.0866,-0.0846 -0.55011,-0.0386 -1.08278,0.10753 -1.10036,0.30184 -3.82967,0.37388 -6.13073,0.16181 -1.44811,-0.13347 -1.6977,-0.11588 -2.10043,0.14799 -0.68833,0.45102 -0.67081,0.45633 3.82849,1.16104 1.1251,0.17622 4.10828,0.0985 4.63293,-0.12075 z m -72.99819,-0.36786 c 0.195855,-0.0752 0.21013,-0.23425 0.07427,-0.82795 l -0.168172,-0.73491 -1.626756,-0.0682 c -1.64488,-0.0689 -2.650032,-0.39419 -3.912753,-1.26612 -0.312555,-0.21582 -0.268243,-0.12439 0.169333,0.34941 0.700445,0.75844 2.426758,2.02708 3.236846,2.37872 0.577117,0.25052 1.777471,0.34161 2.227231,0.16902 z m 63.12208,-0.39302 c 0.86388,-0.43242 3.21118,-2.31011 3.21118,-2.56874 0,-0.0925 -0.382,0.0946 -0.84888,0.41577 -0.99657,0.68552 -2.2411,0.98593 -3.84381,0.92782 l -1.13945,-0.0413 -0.13657,0.65736 c -0.0751,0.36155 -0.0953,0.76494 -0.0448,0.89643 0.13779,0.3591 1.86467,0.18204 2.80237,-0.28733 z m -77.052824,-0.91124 c 0,-0.11657 -0.344241,-0.39457 -0.764984,-0.61778 -0.908659,-0.48204 -2.007592,-1.63987 -1.877711,-1.97834 0.130268,-0.33947 -0.51253,-0.69152 -1.505971,-0.8248 -3.261106,-0.43753 -8.364329,-1.84781 -10.376927,-2.86767 -0.486058,-0.2463 -0.88374,-0.36543 -0.88374,-0.26473 0,0.40137 2.535129,2.65013 3.791122,3.36287 2.324084,1.31887 5.48654,2.38703 9.078211,3.06628 1.975345,0.37358 2.54,0.40118 2.54,0.12417 z m 7.027334,0.0254 c 0.8382,-0.10207 1.553736,-0.21414 1.590079,-0.24905 0.03634,-0.0349 -0.213894,-0.37337 -0.556088,-0.75213 -0.342191,-0.37877 -0.576982,-0.76178 -0.521753,-0.85115 0.06267,-0.1014 -1.033089,-0.16292 -2.915242,-0.16367 -2.702579,-0.001 -5.229813,-0.23688 -6.444663,-0.60134 -1.200375,-0.36011 0.772795,1.44659 2.159,1.97686 1.982433,0.75833 4.075157,0.95873 6.688667,0.64048 z m 78.82467,-0.0555 c 0.6985,-0.12663 1.62629,-0.37201 2.06176,-0.54529 1.34107,-0.53365 2.78961,-1.69905 2.48743,-2.00124 -0.0356,-0.0356 -0.52122,0.0514 -1.07925,0.19318 -0.68665,0.17448 -2.23246,0.28638 -4.78227,0.34616 -3.17448,0.0744 -3.76767,0.12781 -3.76767,0.33906 0,0.1379 -0.26292,0.51365 -0.58427,0.83499 -0.6645,0.66451 -0.65328,0.67435 1.0076,0.88326 1.77013,0.22266 3.23927,0.20685 4.65667,-0.0501 z m 4.50749,-0.0185 c 6.17033,-1.06927 10.74079,-3.14708 12.88626,-5.85831 0.3077,-0.38884 0.53009,-0.73636 0.49419,-0.77225 -0.0359,-0.0359 -0.32252,0.0852 -0.63694,0.26907 -1.46362,0.85598 -6.84359,2.40419 -10.05433,2.89337 -1.72282,0.26248 -2.11667,0.45352 -2.11667,1.02674 0,0.54195 -0.98201,1.48771 -2.05974,1.98371 -0.6772,0.31166 -0.86577,0.71827 -0.33311,0.71827 0.17407,0 0.99322,-0.11727 1.82034,-0.2606 z m -76.587526,-1.01087 c -0.01577,-0.0939 0.02729,-0.64555 0.09571,-1.22586 l 0.12441,-1.0551 -0.519044,-0.0807 c -4.01537,-0.62448 -4.970661,-0.8334 -6.259388,-1.3689 -0.286263,-0.11895 -0.308245,-0.0793 -0.199679,0.35985 0.329645,1.33346 1.76357,2.81022 3.275158,3.373 0.73223,0.27261 3.528725,0.2708 3.482835,-0.002 z m 64.629366,-0.15827 c 1.40563,-0.73531 2.49485,-1.97477 2.79846,-3.18444 l 0.11111,-0.44267 -1.15845,0.39064 c -0.63715,0.21485 -1.95855,0.51702 -2.93645,0.67149 -0.9779,0.15446 -2.03417,0.3214 -2.34725,0.37098 -0.53217,0.0843 -0.56251,0.1239 -0.46567,0.60809 0.057,0.28487 0.10359,0.86018 0.10359,1.27847 v 0.76053 l 1.651,-0.0715 c 1.15914,-0.0502 1.82756,-0.16389 2.24366,-0.38156 z m -71.522061,-2.31596 -0.513652,-1.03633 -1.870477,0.0816 c -2.334276,0.10179 -6.152957,-0.12526 -7.336075,-0.43618 -0.49148,-0.12916 -0.932744,-0.1715 -0.980589,-0.0941 -0.215762,0.34911 0.474438,1.16115 1.351775,1.59039 1.37791,0.67415 3.002923,0.89852 6.631877,0.91569 l 3.230792,0.0153 z m 81.307261,0.86102 c 2.15531,-0.34976 3.9308,-1.32064 3.9308,-2.14945 0,-0.31171 -0.0329,-0.31185 -1.48166,-0.006 -1.16796,0.24649 -2.26046,0.3148 -5.15997,0.32262 l -3.6783,0.01 -0.42803,0.93496 c -0.23542,0.51421 -0.42804,0.96383 -0.42804,0.99914 0,0.14471 6.26046,0.0487 7.2452,-0.1111 z m -92.244575,-1.50689 c -0.09641,-0.18015 -0.1777,-0.504 -0.180645,-0.71967 -0.0038,-0.27879 -0.219085,-0.52175 -0.744812,-0.84058 -0.502849,-0.30496 -0.808906,-0.64049 -0.95648,-1.04861 -0.187203,-0.51769 -0.3117,-0.61589 -0.906187,-0.71475 -2.735948,-0.45495 -9.907,-2.77942 -12.34797,-4.00256 -0.544942,-0.27306 -1.028705,-0.45857 -1.075033,-0.41224 -0.158098,0.1581 1.165951,1.96884 1.934009,2.64491 2.540021,2.23582 6.728955,3.96644 12.303665,5.08316 2.085567,0.41778 2.191808,0.41833 1.973453,0.0103 z m 18.282041,0.0974 c 0,-0.12657 0.210341,-0.64714 0.467424,-1.1568 l 0.467421,-0.92667 -1.949088,-0.21233 c -2.736969,-0.29814 -5.456695,-0.80768 -6.903524,-1.29337 -0.678349,-0.22771 -1.269857,-0.41402 -1.314463,-0.41402 -0.04461,0 -0.0811,0.22595 -0.0811,0.5021 0,1.47666 2.636557,2.80517 6.874846,3.46411 2.003612,0.3115 2.438487,0.3181 2.438487,0.037 z m 62.568674,-0.1028 c 3.09784,-0.50748 5.59608,-1.47229 6.25752,-2.41663 0.144,-0.20558 0.26181,-0.63242 0.26181,-0.94852 0,-0.47158 -0.0532,-0.55726 -0.29633,-0.47736 -2.69887,0.88693 -5.38233,1.42607 -8.61348,1.73054 l -1.20514,0.11357 0.52781,1.16478 c 0.31094,0.68619 0.63217,1.16514 0.78181,1.16564 0.1397,5.3e-4 1.1684,-0.14894 2.286,-0.33202 z m 17.47507,-0.0162 c 7.21206,-1.37661 12.58291,-4.16014 14.25283,-7.38677 0.30798,-0.59507 0.24929,-0.59468 -0.95157,0.006 -2.56099,1.28175 -8.53947,3.25525 -12.09822,3.99363 -0.86365,0.17919 -0.9965,0.26526 -1.27,0.82277 -0.168,0.34246 -0.57215,0.79986 -0.89811,1.01644 -0.33603,0.22326 -0.63859,0.59086 -0.69872,0.8489 -0.0583,0.25032 -0.16173,0.58847 -0.22979,0.75145 -0.15137,0.36253 -0.3045,0.3668 1.89358,-0.0528 z m -89.206442,-0.8416 1.288698,-0.005 -0.508,-0.37495 c -0.845439,-0.624 -1.256871,-1.15016 -1.369705,-1.75162 l -0.107318,-0.57238 h -3.186234 c -1.752431,0 -3.782301,-0.0884 -4.510821,-0.19633 -2.137891,-0.31689 -2.162992,-0.3131 -2.225211,0.33532 -0.101182,1.05451 0.776739,1.74425 2.847956,2.23748 1.054806,0.25119 4.616439,0.49882 5.738635,0.39899 0.408816,-0.0364 1.323216,-0.0685 2.032,-0.0715 z m 85.331162,-0.2488 c 2.42693,-0.39352 3.75186,-1.32151 3.5032,-2.45367 -0.11758,-0.5353 -0.13534,-0.54459 -0.82225,-0.4298 -2.15323,0.3598 -3.02543,0.42183 -5.9749,0.42493 l -3.24082,0.003 -0.10796,0.57549 c -0.13343,0.71122 -0.63734,1.37083 -1.34168,1.75623 l -0.53538,0.29295 1.60866,0.0866 c 2.27209,0.12225 5.26088,0.0115 6.91113,-0.25608 z m -74.160718,-2.12967 c 0.312626,-0.37643 0.521163,-0.73167 0.463415,-0.78942 -0.05775,-0.0577 -1.266031,-0.2396 -2.685076,-0.40413 -3.356481,-0.38915 -6.106975,-0.92036 -7.895252,-1.52484 -1.573987,-0.53204 -2.728163,-0.63766 -2.728163,-0.24965 0,0.41953 0.916932,1.23302 2.014064,1.78685 1.310386,0.66149 2.941711,1.09036 5.464566,1.43662 2.660597,0.36518 2.815754,0.38149 3.8667,0.40668 0.892162,0.0214 0.955241,-0.006 1.499746,-0.66211 z m 61.296238,0.25964 c 3.55113,-0.51757 6.17566,-1.50807 6.92702,-2.61426 0.20955,-0.30851 0.381,-0.62586 0.381,-0.70522 0,-0.29133 -1.06804,-0.12967 -2.98784,0.45224 -2.0894,0.63333 -4.64513,1.10213 -7.88055,1.44554 -1.08811,0.1155 -2.07169,0.26767 -2.18574,0.33815 -0.14905,0.0921 -0.0478,0.32957 0.35987,0.84435 l 0.56723,0.7162 1.50716,-0.10699 c 0.82894,-0.0588 2.31927,-0.22534 3.31185,-0.37001 z m -83.45465,-1.07475 c 0,-0.19981 -0.158089,-0.35999 -0.420227,-0.42578 -0.619644,-0.15552 -1.555158,-1.04522 -1.662388,-1.58098 -0.08756,-0.43748 -0.267782,-0.52427 -2.857754,-1.37616 -5.626034,-1.85051 -12.539353,-4.90704 -15.093049,-6.67296 -0.677963,-0.46882 -0.737555,-0.25958 -0.192012,0.67421 2.067367,3.53862 7.830099,6.66178 16.500096,8.94236 3.215537,0.84582 3.725334,0.90594 3.725334,0.43931 z m 103.15482,-0.2801 c 8.72545,-2.19733 14.6878,-5.23847 16.91342,-8.62682 0.36653,-0.55803 0.66643,-1.10306 0.66643,-1.2112 0,-0.10813 -0.59055,0.14177 -1.31234,0.55534 -3.5696,2.04531 -9.29216,4.50127 -14.40304,6.18137 -2.58409,0.84946 -2.76756,0.93772 -2.85775,1.37467 -0.11079,0.53678 -1.04731,1.42588 -1.66531,1.58098 -0.4677,0.11739 -0.46023,0.10613 -0.31744,0.47824 0.14014,0.3652 0.25711,0.35213 2.97603,-0.33258 z m -93.88382,0.26363 c 0.675216,-0.001 1.224732,-0.059 1.221144,-0.12887 -0.0036,-0.0699 -0.251237,-0.2794 -0.550333,-0.46566 -0.299096,-0.18627 -0.679109,-0.61536 -0.844471,-0.95354 l -0.300662,-0.61486 -3.848004,-0.12362 c -5.014698,-0.16109 -6.30451,-0.15254 -6.500141,0.0431 -0.101703,0.10171 1.7e-4,0.3525 0.276929,0.68133 0.438968,0.52168 1.23956,0.86335 2.883204,1.23044 0.986684,0.22037 4.977226,0.49232 5.842,0.39812 0.32597,-0.0355 1.14512,-0.0654 1.820334,-0.0664 z m 88.05787,-0.18659 c 2.05961,-0.24653 3.47796,-0.72938 4.01407,-1.36651 0.2815,-0.33455 0.38623,-0.58866 0.28453,-0.69037 -0.19563,-0.19562 -1.48544,-0.20417 -6.50014,-0.0431 l -3.848,0.12362 -0.30067,0.61486 c -0.16536,0.33818 -0.54537,0.76727 -0.84447,0.95354 -0.29909,0.18626 -0.54674,0.39285 -0.55033,0.45907 -0.0151,0.27912 5.27794,0.24418 7.74501,-0.0511 z m -73.470412,-0.92184 c 0.289046,-0.3292 0.525542,-0.6554 0.525542,-0.72487 0,-0.25188 -1.18282,-0.56618 -5.588,-1.48486 -5.078646,-1.05914 -7.179914,-1.5685 -8.972815,-2.17508 -0.683792,-0.23134 -1.306841,-0.38133 -1.384554,-0.3333 -0.296074,0.18299 -0.127093,1.07424 0.299884,1.58167 0.891545,1.05954 2.792553,1.86015 6.218891,2.61909 1.711338,0.37907 5.623629,0.91073 8.012052,1.08881 0.226092,0.0169 0.562083,-0.19912 0.889,-0.57146 z m 57.336882,0.15079 c 3.86276,-0.4445 7.76699,-1.46367 9.27136,-2.42022 0.79322,-0.50438 1.48191,-1.37722 1.47808,-1.87334 -0.005,-0.68671 -0.2328,-0.69684 -2.0776,-0.0925 -1.63188,0.53456 -7.58166,1.89744 -11.16016,2.55638 -1.44205,0.26553 -3.01502,0.7443 -3.01502,0.91769 0,0.0535 0.23829,0.38639 0.52954,0.73972 l 0.52954,0.64242 1.12146,-0.10841 c 0.6168,-0.0596 2.11206,-0.22239 3.3228,-0.36171 z m -72.474674,-1.75356 c 0.05756,-0.0931 0.252778,-0.16933 0.433816,-0.16933 0.261517,0 0.189413,-0.12626 -0.350885,-0.61438 -0.374023,-0.33791 -0.725403,-0.79511 -0.780843,-1.016 -0.09475,-0.37753 -0.176276,-0.40162 -1.359117,-0.40162 -2.500826,0 -5.570943,-0.47208 -7.224252,-1.11085 -0.632738,-0.24446 -0.654958,-0.23963 -1.143,0.24841 -0.48922,0.48922 -0.601274,0.90354 -0.39192,1.44911 0.139462,0.36343 1.442651,1.00619 2.586697,1.27581 1.738003,0.40961 8.025767,0.66851 8.229504,0.33885 z m 16.411395,-0.42808 c 0.159356,-0.63493 -0.18379,-1.69738 -0.760275,-2.35396 -0.742905,-0.84612 -1.699336,-1.10075 -4.854318,-1.29237 -1.512424,-0.0919 -3.112624,-0.23639 -3.556,-0.3212 -1.526857,-0.29204 -4.873117,-1.03148 -6.274435,-1.38648 -0.772366,-0.19566 -1.441249,-0.3188 -1.486405,-0.27365 -0.04516,0.0452 0.0026,0.30222 0.106058,0.57126 0.103489,0.26903 0.239908,0.79395 0.303154,1.16648 0.111649,0.65766 0.147154,0.68811 1.222269,1.04832 0.609005,0.20404 2.017769,0.60453 3.130588,0.88998 2.373465,0.60883 11.795037,2.53627 11.952877,2.44529 0.05953,-0.0343 0.156954,-0.25646 0.216487,-0.49367 z m 56.486609,-0.74699 c 5.07417,-1.03485 8.91961,-2.02649 9.60967,-2.47807 0.21638,-0.14161 0.381,-0.42135 0.381,-0.64747 0,-0.21898 0.11092,-0.71252 0.24649,-1.09677 0.15452,-0.43797 0.18084,-0.69862 0.0705,-0.69862 -0.0968,0 -0.77543,0.15306 -1.50812,0.34014 -3.73103,0.95261 -6.96814,1.51624 -9.6659,1.68297 -2.92586,0.18082 -3.63131,0.31251 -4.4869,0.83758 -0.86962,0.53368 -1.49784,2.22513 -1.15665,3.11425 0.0739,0.19271 0.2464,0.21523 0.80433,0.10503 0.39061,-0.0772 2.9581,-0.59872 5.70553,-1.15904 z m 17.41632,0.93538 c 2.52616,-0.44101 3.60077,-1.19935 3.2254,-2.27614 -0.31741,-0.91053 -0.81406,-1.04112 -2.21841,-0.58329 -1.42195,0.46356 -4.52187,0.89779 -6.40932,0.89779 -1.09386,0 -1.34599,0.0484 -1.34599,0.25845 0,0.14215 -0.33053,0.58899 -0.73452,0.99298 l -0.73452,0.73452 0.43819,0.18747 c 0.57998,0.24813 5.98808,0.10091 7.77917,-0.21178 z M 38.087115,32.116534 c -0.889095,-0.53296 -1.188051,-1.19447 -0.914463,-2.02344 0.109291,-0.33116 0.364328,-0.72041 0.56675,-0.86501 0.358296,-0.25594 0.359548,-0.26925 0.04733,-0.50268 -0.176388,-0.13187 -1.052688,-0.48292 -1.947334,-0.78011 -8.017051,-2.6631 -16.494465,-6.65073 -21.66708,-10.19181 -1.900556,-1.30109 -1.772084,-1.25376 -1.630649,-0.60072 0.441501,2.03853 3.098147,5.04012 6.341413,7.1648 2.390946,1.56633 6.918309,3.83361 10.420394,5.2185 3.873312,1.53168 8.162636,2.97321 8.888626,2.98723 l 0.592667,0.0114 -0.697664,-0.41821 z m 106.874545,-0.66702 c 5.21208,-1.76595 7.82713,-2.84342 11.76378,-4.84705 4.47964,-2.27998 7.95099,-4.98031 9.44523,-7.34734 0.45078,-0.71408 1.12257,-2.4525 0.99646,-2.5786 -0.0406,-0.0406 -0.72887,0.38441 -1.52944,0.94452 -4.9524,3.46484 -14.30849,7.86676 -22.33191,10.50689 -1.05648,0.34764 -1.651,0.62971 -1.651,0.7833 0,0.13202 0.0598,0.24004 0.13282,0.24004 0.24077,0 0.71385,0.97428 0.71385,1.47012 0,0.64035 -0.38609,1.16641 -1.15357,1.57177 l -0.62443,0.32981 0.51288,0.007 c 0.28209,0.004 1.95849,-0.4823 3.72533,-1.08094 z m -97.282693,-1.88593 c 0.419928,-1.10449 0.0054,-2.54012 -0.893929,-3.09593 -0.308276,-0.19053 -0.914881,-0.42583 -1.34801,-0.5229 -0.652946,-0.14633 -6.616427,-1.82052 -7.625492,-2.14078 -0.19303,-0.0613 -0.47905,0.0849 -0.805985,0.41181 -0.416451,0.41645 -0.506775,0.64611 -0.506775,1.28854 0,1.8923 1.515335,3.25153 4.36671,3.91687 1.445197,0.33722 3.195495,0.52845 5.077815,0.55478 1.53871,0.0215 1.573871,0.0132 1.735666,-0.41239 z m 89.857223,0.0965 c 2.45069,-0.4067 4.13515,-1.21314 5.0155,-2.40121 0.35471,-0.47868 0.56967,-1.87198 0.39574,-2.56498 -0.0568,-0.22646 -0.28596,-0.5314 -0.50917,-0.67765 -0.42642,-0.2794 -0.23186,-0.32567 -8.76155,2.08334 -0.95377,0.26937 -1.46354,0.77364 -1.7657,1.74664 -0.25324,0.81549 -0.25275,0.93131 0.007,1.54224 l 0.2804,0.66054 2.14606,-0.10766 c 1.18033,-0.0592 2.61679,-0.18579 3.19213,-0.28126 z m 9.20049,-3.26884 c 12.14273,-4.45802 21.23774,-9.92416 24.78319,-14.89482 0.82755,-1.1602 1.71088,-2.8109699 1.57621,-2.9456299 -0.11935,-0.11935 -1.74452,0.8942 -3.40019,2.1205499 -6.47384,4.79519 -14.88615,8.89201 -25.07778,12.21295 -1.5796,0.51471 -2.29382,0.8483 -1.81621,0.8483 0.33829,0 0.71554,0.95874 0.71554,1.81846 0,0.48495 -0.13819,1.09034 -0.33866,1.48354 -0.18627,0.36536 -0.33867,0.68173 -0.33867,0.70305 0,0.0471 1.71687,-0.54616 3.89657,-1.3464 z m -110.436585,0.60102 c -0.463603,-0.88803 -0.364574,-2.40611 0.195877,-3.00268 0.219588,-0.23374 0.367202,-0.45539 0.328027,-0.49255 -0.03917,-0.0372 -1.023723,-0.37286 -2.187889,-0.746 -7.999065,-2.56385 -16.535739,-6.51308 -22.013334,-10.1838 -0.605367,-0.40567 -1.900767,-1.327 -2.878665,-2.04739 C 7.8697,9.1390141 6.526777,8.3648941 6.526777,8.6652341 c 0,0.27942 0.660555,1.5109299 1.360626,2.5366999 3.521756,5.16018 12.119409,10.35451 25.39404,15.34199 3.429061,1.28835 3.459549,1.29287 3.018652,0.44834 z m 30.636348,30.31816 c 0.20955,-0.0404 0.55245,-0.0404 0.762,0 0.20955,0.0404 0.0381,0.0734 -0.381,0.0734 -0.4191,0 -0.59055,-0.033 -0.381,-0.0734 z m 44.873337,0 c 0.20955,-0.0404 0.55245,-0.0404 0.762,0 0.20955,0.0404 0.0381,0.0734 -0.381,0.0734 -0.4191,0 -0.59055,-0.033 -0.381,-0.0734 z m 16.46767,-6.14583 c 0,-0.0931 0.0762,-0.16933 0.16933,-0.16933 0.0931,0 0.16933,0.0762 0.16933,0.16933 0,0.0931 -0.0762,0.16934 -0.16933,0.16934 -0.0931,0 -0.16933,-0.0762 -0.16933,-0.16934 z m -73.82934,-0.84665 c -0.1397,-0.0903 -0.1778,-0.16415 -0.08467,-0.16415 0.09313,0 0.283634,0.0739 0.423334,0.16415 0.1397,0.0903 0.1778,0.16414 0.08467,0.16414 -0.09313,0 -0.283633,-0.0739 -0.423334,-0.16414 z m 70.39751,-0.021 c 0.11487,-0.11573 0.25151,-0.16776 0.30364,-0.11562 0.0521,0.0521 -0.0418,0.14682 -0.20884,0.21041 -0.24134,0.0919 -0.26079,0.0724 -0.0948,-0.0948 z m -72.122594,-0.264 c 0.122238,-0.0489 0.26829,-0.0429 0.324557,0.0134 0.05627,0.0563 -0.04375,0.0963 -0.22225,0.0889 -0.197266,-0.008 -0.237387,-0.0482 -0.102307,-0.10231 z m 79.078674,0 c 0.12223,-0.0489 0.26829,-0.0429 0.32455,0.0134 0.0563,0.0563 -0.0437,0.0963 -0.22225,0.0889 -0.19726,-0.008 -0.23739,-0.0482 -0.1023,-0.10231 z m 13.40908,-8.24821 c 0,-0.0366 0.11825,-0.11193 0.26279,-0.16739 0.15069,-0.0578 0.21866,-0.0294 0.15934,0.0666 -0.0994,0.1609 -0.42213,0.23799 -0.42213,0.10084 z M 87.849109,23.227284 c -0.58208,-0.26939 -1.05833,-0.52481 -1.05833,-0.56761 0,-0.0428 0.18958,-0.40946 0.42129,-0.81478 0.23171,-0.40533 0.42221,-0.90695 0.42334,-1.11473 0.002,-0.46065 0.43217,-0.59397 1.67991,-0.52123 l 0.89777,0.0523 0.31162,0.82314 c 0.17139,0.45272 0.4423,0.96754 0.60203,1.14404 0.15972,0.17649 0.25912,0.3495 0.22089,0.38446 -0.15354,0.14037 -2.1855,1.11917 -2.30835,1.11192 -0.0725,-0.004 -0.60808,-0.22817 -1.19017,-0.49755 z m -27.167416,-0.45702 c 0.122237,-0.0489 0.268287,-0.0429 0.324556,0.0134 0.05627,0.0563 -0.04375,0.0963 -0.22225,0.0889 -0.197265,-0.008 -0.237386,-0.0482 -0.102306,-0.1023 z m 57.912007,0 c 0.12223,-0.0489 0.26829,-0.0429 0.32455,0.0134 0.0563,0.0563 -0.0438,0.0963 -0.22225,0.0889 -0.19726,-0.008 -0.23738,-0.0482 -0.1023,-0.1023 z m -66.346924,-0.91032 c 0,-0.0986 0.0762,-0.13223 0.169334,-0.0747 0.09313,0.0576 0.169333,0.13826 0.169333,0.17933 0,0.0411 -0.0762,0.0747 -0.169333,0.0747 -0.09313,0 -0.169334,-0.0807 -0.169334,-0.17933 z m 27.744431,-0.79434 c -0.32575,-0.38914 -0.26511,-1.05832 0.12152,-1.34103 0.382289,-0.27954 0.443101,-0.27957 0.824849,-3.4e-4 0.169141,0.12368 0.307531,0.42824 0.307531,0.67681 0,0.8702 -0.74934,1.2674 -1.2539,0.66465 z m 17.086572,-0.0559 c -0.42874,-0.24972 -0.40004,-1.27369 0.0423,-1.51044 0.75656,-0.4049 1.5047,0.7211 0.91331,1.37458 -0.32403,0.35805 -0.52508,0.38664 -0.95564,0.13586 z m -15.482292,-0.76719 c -0.0569,-0.14819 0.003,-0.33565 0.13295,-0.41658 0.254209,-0.15828 3.89432,-1.0447 3.968671,-0.96643 0.02461,0.0259 0.0712,0.27569 0.103529,0.55509 0.0551,0.47608 0.0109,0.51967 -0.703191,0.69363 -0.4191,0.10209 -1.355231,0.2347 -2.080289,0.29467 -1.11524,0.0923 -1.33421,0.0676 -1.42167,-0.16038 z m 13.577292,0.008 c -0.18627,-0.0309 -0.92922,-0.10481 -1.651,-0.1642 l -1.31233,-0.108 v -0.57822 c 0,-0.71028 0.0994,-0.71792 2.45533,-0.18865 1.44539,0.32472 1.69333,0.42942 1.69333,0.7151 0,0.33917 -0.41328,0.45213 -1.18533,0.32397 z m -8.91444,-0.35742 c -0.0932,-0.11224 -0.144811,-0.41823 -0.114802,-0.67997 l 0.0546,-0.47592 h 2.794002 2.794 l 0.0532,0.5515 c 0.0332,0.34464 -0.0303,0.57915 -0.16933,0.62523 -0.12237,0.0405 -1.35193,0.0984 -2.73236,0.12847 -1.80958,0.0395 -2.55712,-0.002 -2.67923,-0.14932 z m 2.1927,-1.75725 c 0.62802,-0.25195 1.76494,-0.27263 1.84927,-0.0336 0.0553,0.15661 -0.22631,0.20887 -1.08242,0.20093 -0.8845,-0.008 -1.06517,-0.0476 -0.76685,-0.1673 z m -76.844263,-0.5093 c 0,-0.0986 0.0762,-0.13223 0.169333,-0.0747 0.09313,0.0576 0.169334,0.13825 0.169334,0.17932 0,0.0411 -0.0762,0.0747 -0.169334,0.0747 -0.09313,0 -0.169333,-0.0807 -0.169333,-0.17933 z m 75.861333,-0.24932 c 0,-0.49923 0.0323,-0.51527 1.66299,-0.82507 1.10033,-0.20904 1.25085,-0.20633 1.33928,0.0241 0.17629,0.45939 -0.2185,0.80145 -1.15598,1.0016 -1.539,0.32857 -1.84629,0.29518 -1.84629,-0.20065 z m -0.10241,-1.1652 c -0.24517,-0.6389 0.19523,-0.85555 2.48271,-1.22133 0.68741,-0.10992 0.6942,-0.1059 0.63891,0.37837 -0.0487,0.42673 -0.15605,0.5142 -0.8374,0.6824 -1.66874,0.41195 -2.17412,0.44747 -2.28422,0.16056 z m -0.0669,-1.60275 c 0,-0.48361 0.30526,-0.64328 1.73725,-0.90873 1.07032,-0.1984 1.3475,-0.2031 1.49504,-0.0253 0.35562,0.4285 -0.10285,0.81147 -1.22877,1.02641 -1.59657,0.3048 -2.00352,0.28604 -2.00352,-0.0924 z m 0,-1.44262 c 0,-0.52231 0.22072,-0.63105 1.92335,-0.94752 0.95947,-0.17835 1.18554,-0.17673 1.30052,0.009 0.36196,0.58566 -0.30388,0.92045 -2.54262,1.27844 -0.6516,0.1042 -0.68125,0.0894 -0.68125,-0.34023 z m 0.044,-1.24775 c -0.0538,-0.14029 -0.0206,-0.37806 0.0738,-0.52838 0.18895,-0.30082 1.47182,-0.65499 2.46456,-0.6804 0.51408,-0.0131 0.635,0.0443 0.635,0.30168 0,0.47261 -0.28759,0.62137 -1.74941,0.90493 -1.18063,0.22901 -1.33681,0.22925 -1.42395,0.002 z m 0.0523,-1.37566 c -0.0615,-0.0996 -0.0353,-0.32413 0.0583,-0.49902 0.14167,-0.2647099 0.31132,-0.3044199 1.01264,-0.2370299 0.46335,0.0445 1.07609,-5e-4 1.36165,-0.10005 0.45848,-0.15983 0.5192,-0.14406 0.5192,0.13484 0,0.2400099 -0.19309,0.3566599 -0.80434,0.4859399 -1.71638,0.363 -2.03634,0.39508 -2.14744,0.21532 z m 0.27458,-1.3777099 c -1.3857,-0.84484 -1.36091,-3.01678 0.0443,-3.88527 0.93749,-0.5794 2.02728,-0.41675 2.74118,0.40912 0.92151,1.06603 0.85189,2.31955 -0.18155,3.26882 -0.72771,0.66844 -1.71828,0.74731 -2.60396,0.20733 z m 2.27637,-0.4651 c 1.39233,-1.12782 0.70433,-3.24261 -1.05801,-3.25213 -1.7018,-0.009 -2.45151,2.04148 -1.15938,3.17123 0.53913,0.47138 1.68378,0.51315 2.21739,0.0809 z m -2.03946,-0.55956 c -0.57448,-0.68273 -0.55728,-1.24882 0.0566,-1.8627 0.61082,-0.61082 1.23951,-0.63855 1.79872,-0.0793 0.86588,0.86587 0.27171,2.46303 -0.91628,2.46303 -0.35116,0 -0.63153,-0.15556 -0.93903,-0.521 z"
       id="path3732"
       inkscape:connector-curvature="0" />
  </g>
</svg>
