<?xml version="1.0" encoding="UTF-8" standalone="no"?>
<!-- Generator: Adobe Illustrator 23.0.3, SVG Export Plug-In . SVG Version: 6.00 Build 0)  -->

<svg
   xmlns:dc="http://purl.org/dc/elements/1.1/"
   xmlns:cc="http://creativecommons.org/ns#"
   xmlns:rdf="http://www.w3.org/1999/02/22-rdf-syntax-ns#"
   xmlns:svg="http://www.w3.org/2000/svg"
   xmlns="http://www.w3.org/2000/svg"
   xmlns:sodipodi="http://sodipodi.sourceforge.net/DTD/sodipodi-0.dtd"
   xmlns:inkscape="http://www.inkscape.org/namespaces/inkscape"
   version="1.1"
   id="Calque_1"
   x="0px"
   y="0px"
   viewBox="0 0 492.44 55.06"
   style="enable-background:new 0 0 492.44 55.06;"
   xml:space="preserve"
   sodipodi:docname="home_logo.svg"
   inkscape:version="0.92.3 (2405546, 2018-03-11)"><metadata
   id="metadata75"><rdf:RDF><cc:Work
       rdf:about=""><dc:format>image/svg+xml</dc:format><dc:type
         rdf:resource="http://purl.org/dc/dcmitype/StillImage" /></cc:Work></rdf:RDF></metadata><defs
   id="defs73" /><sodipodi:namedview
   pagecolor="#ffffff"
   bordercolor="#666666"
   borderopacity="1"
   objecttolerance="10"
   gridtolerance="10"
   guidetolerance="10"
   inkscape:pageopacity="0"
   inkscape:pageshadow="2"
   inkscape:window-width="1858"
   inkscape:window-height="1058"
   id="namedview71"
   showgrid="false"
   inkscape:zoom="2.0447568"
   inkscape:cx="125.68072"
   inkscape:cy="-3.6365264"
   inkscape:window-x="54"
   inkscape:window-y="-8"
   inkscape:window-maximized="1"
   inkscape:current-layer="g68" />
<style
   type="text/css"
   id="style2">
	.st0{fill:#B3B3B3;}
	.st1{fill:#696969;}
	.st2{fill:#3B3B3B;}
	.st3{fill:url(#SVGID_1_);}
	.st4{fill:url(#SVGID_2_);}
</style>
<g
   id="g68"
   transform="translate(-42.015014,-2.4452785)">
	<polygon
   class="st0"
   points="360.96,46.42 363.16,33.8 381.52,33.8 382.88,26.08 364.51,26.08 366.68,13.63 395.8,13.63 397.15,5.91 359.78,5.91 351.31,54.15 388.69,54.15 390.05,46.42 "
   id="polygon4"
   style="fill:#FFFFFF" />
	<path
   class="st0"
   d="m 437.7,29.63 c 0.05,-0.05 0.1,-0.09 0.14,-0.14 1.93,-1.94 3.33,-4.45 3.83,-7.36 0.11,-0.63 0.14,-1.25 0.13,-1.87 0.01,-0.17 0.03,-0.33 0.03,-0.5 0,-7.66 -6.21,-13.86 -13.86,-13.86 -0.07,0 -0.13,0.01 -0.2,0.01 -3.32,0 -22.16,0 -22.16,0 h -0.1 l -8.48,48.24 31,-0.01 c 6.59,-0.11 12.39,-4.95 13.57,-11.68 0.84,-4.8 -0.87,-9.46 -4.15,-12.58 0.09,-0.08 0.17,-0.17 0.25,-0.25 z m -9.91,16.8 h -21.07 l 2.21,-12.8 h 18.85 c 3.52,0 6.37,2.88 6.37,6.4 0.01,3.51 -2.84,6.4 -6.36,6.4 z M 428,25.94 410.3,25.9 412.43,13.64 428,13.62 c 3.4,0 6.16,2.76 6.16,6.16 0.01,3.4 -2.75,6.16 -6.16,6.16 z"
   id="path6"
   inkscape:connector-curvature="0"
   style="fill:#FFFFFF" />
	<path
   class="st0"
   d="m 488.31,29.63 c 0.05,-0.05 0.1,-0.09 0.14,-0.14 1.93,-1.94 3.33,-4.45 3.83,-7.36 0.11,-0.63 0.14,-1.25 0.13,-1.87 0.01,-0.17 0.03,-0.33 0.03,-0.5 0,-7.66 -6.21,-13.86 -13.86,-13.86 -0.07,0 -0.13,0.01 -0.2,0.01 -3.32,0 -22.16,0 -22.16,0 h -0.1 l -8.48,48.24 31,-0.01 c 6.59,-0.11 12.39,-4.95 13.57,-11.68 0.84,-4.8 -0.87,-9.46 -4.15,-12.58 0.09,-0.08 0.17,-0.17 0.25,-0.25 z m -9.91,16.8 h -21.07 l 2.21,-12.8 h 18.85 c 3.52,0 6.37,2.88 6.37,6.4 0.01,3.51 -2.84,6.4 -6.36,6.4 z m 0.21,-20.49 -17.7,-0.04 2.13,-12.26 15.57,-0.02 c 3.4,0 6.16,2.76 6.16,6.16 0,3.4 -2.76,6.16 -6.16,6.16 z"
   id="path8"
   inkscape:connector-curvature="0"
   style="fill:#FFFFFF" />
	<polygon
   class="st0"
   points="131.87,46.42 134.07,33.8 152.43,33.8 153.78,26.08 135.42,26.08 137.59,13.64 166.7,13.64 168.06,5.91 130.69,5.91 122.21,54.15 159.6,54.15 160.96,46.42 "
   id="polygon10"
   style="fill:#FFFFFF" />
	<path
   class="st0"
   d="M 249.92,5.45 C 238.23,3 226.72,10.72 224.22,22.69 l -1.28,7.06 h 0.03 c -1.76,11.52 5.54,22.5 16.83,24.86 11.69,2.45 23.2,-5.27 25.7,-17.24 l 1.06,-5.83 C 269.06,19.57 261.61,7.89 249.92,5.45 Z m 9.02,23.77 -1.19,6.76 c -1.59,7.59 -8.88,12.48 -16.3,10.93 -7.16,-1.5 -11.79,-8.46 -10.67,-15.77 h -0.02 l 1.21,-6.84 c 1.59,-7.59 8.88,-12.48 16.3,-10.93 7.19,1.5 11.83,8.51 10.66,15.85 z"
   id="path12"
   inkscape:connector-curvature="0"
   style="fill:#FFFFFF" />
	<path
   class="st0"
   d="m 215.82,21.74 c 0,-8.78 -7.12,-15.9 -15.9,-15.9 L 176.38,5.9 167.9,54.13 h 8.31 l 2.88,-16.5 h 16.43 l 7.96,16.51 8.8,-0.01 -8.29,-17.05 c 6.82,-1.8 11.83,-7.98 11.83,-15.34 z m -16.06,8.18 c -0.25,0 -19.29,-0.04 -19.29,-0.04 l 2.83,-16.3 c 0,0 16.47,-0.01 16.52,-0.01 4.52,0.02 8.16,3.69 8.14,8.21 -0.01,4.51 -3.69,8.15 -8.2,8.14 z"
   id="path14"
   inkscape:connector-curvature="0"
   style="fill:#FFFFFF" />
	<path
   class="st0"
   d="M 122.77,5.9 H 93.62 C 85.77,5.85 79.22,11.5 77.88,18.97 L 71.7,54.14 H 80 l 2.87,-16.45 h 26.27 l -2.89,16.45 h 8.31 L 122.97,5.9 Z M 110.5,29.96 H 84.22 l 1.66,-9.58 c 0.67,-3.86 4.05,-6.78 8.1,-6.76 l 19.39,0.01 z"
   id="path16"
   inkscape:connector-curvature="0"
   style="fill:#FFFFFF" />
	<polygon
   class="st0"
   points="277.78,26.08 276.4,33.8 292.91,33.8 294.29,26.08 "
   id="polygon18"
   style="fill:#FFFFFF" />
	<polygon
   class="st0"
   points="303.44,54.15 312.72,54.15 325.87,33.25 333.1,54.15 333.15,54.15 341.19,54.15 354.04,5.91 346.07,5.91 336.65,41.09 330.71,24.02 322.46,24.02 311.65,41.15 312.36,5.91 304.48,5.91 "
   id="polygon20"
   style="fill:#FFFFFF" />
	
</g>
</svg>