<?xml version="1.0" encoding="UTF-8" standalone="no"?>
<!-- Generator: Adobe Illustrator 23.0.3, SVG Export Plug-In . SVG Version: 6.00 Build 0)  -->

<svg
   xmlns:dc="http://purl.org/dc/elements/1.1/"
   xmlns:cc="http://creativecommons.org/ns#"
   xmlns:rdf="http://www.w3.org/1999/02/22-rdf-syntax-ns#"
   xmlns:svg="http://www.w3.org/2000/svg"
   xmlns="http://www.w3.org/2000/svg"
   xmlns:sodipodi="http://sodipodi.sourceforge.net/DTD/sodipodi-0.dtd"
   xmlns:inkscape="http://www.inkscape.org/namespaces/inkscape"
   version="1.1"
   id="Calque_1"
   x="0px"
   y="0px"
   viewBox="0 0 208.06993 23.265937"
   xml:space="preserve"
   sodipodi:docname="top-left-logo-large-with-logo-color.svg"
   width="208.06992"
   height="23.265936"
   inkscape:version="0.92.3 (2405546, 2018-03-11)"><metadata
   id="metadata81"><rdf:RDF><cc:Work
       rdf:about=""><dc:format>image/svg+xml</dc:format><dc:type
         rdf:resource="http://purl.org/dc/dcmitype/StillImage" /><dc:title></dc:title></cc:Work></rdf:RDF></metadata><defs
   id="defs79" /><sodipodi:namedview
   pagecolor="#ffffff"
   bordercolor="#666666"
   borderopacity="1"
   objecttolerance="10"
   gridtolerance="10"
   guidetolerance="10"
   inkscape:pageopacity="0"
   inkscape:pageshadow="2"
   inkscape:window-width="1858"
   inkscape:window-height="1058"
   id="namedview77"
   showgrid="false"
   fit-margin-top="0"
   fit-margin-left="0"
   fit-margin-right="0"
   fit-margin-bottom="0"
   inkscape:zoom="2.890901"
   inkscape:cx="197.32588"
   inkscape:cy="-15.308389"
   inkscape:window-x="54"
   inkscape:window-y="-8"
   inkscape:window-maximized="1"
   inkscape:current-layer="Calque_1" />
<style
   type="text/css"
   id="style2">
	.st0{fill:#696969;}
	.st1{fill:#FF8300;}
	.st2{fill:#EA0029;}
	.st3{fill:#3B3B3B;}
	.st4{fill:url(#SVGID_1_);}
	.st5{fill:url(#SVGID_2_);}
</style>
<g
   id="g24"
   transform="matrix(0.42252847,0,0,0.42252847,-0.04647813,0)">
	<g
   id="g22">
		<polygon
   class="st0"
   points="390.16,46.42 361.07,46.42 363.27,33.8 381.63,33.8 382.98,26.08 364.62,26.08 366.79,13.63 395.9,13.63 397.26,5.91 359.89,5.91 351.41,54.15 388.8,54.15 "
   id="polygon4"
   style="fill:#696969" />
		<path
   class="st0"
   d="m 437.81,29.63 c 0.05,-0.05 0.1,-0.09 0.14,-0.14 1.93,-1.94 3.33,-4.45 3.83,-7.36 0.11,-0.63 0.14,-1.25 0.13,-1.87 0.01,-0.17 0.03,-0.33 0.03,-0.5 0,-7.66 -6.21,-13.86 -13.86,-13.86 -0.07,0 -0.13,0.01 -0.2,0.01 -3.32,0 -22.16,0 -22.16,0 h -0.1 l -8.48,48.24 31,-0.01 c 6.59,-0.11 12.39,-4.95 13.57,-11.68 0.84,-4.8 -0.87,-9.46 -4.15,-12.58 0.09,-0.08 0.17,-0.17 0.25,-0.25 z m -9.91,16.8 h -21.07 l 2.21,-12.8 h 18.85 c 3.52,0 6.37,2.88 6.37,6.4 0.01,3.51 -2.85,6.4 -6.36,6.4 z m 0.21,-20.49 -17.7,-0.04 2.13,-12.26 15.57,-0.02 c 3.4,0 6.16,2.76 6.16,6.16 0,3.4 -2.76,6.16 -6.16,6.16 z"
   id="path6"
   inkscape:connector-curvature="0"
   style="fill:#696969" />
		<path
   class="st0"
   d="m 488.42,29.63 c 0.05,-0.05 0.1,-0.09 0.14,-0.14 1.93,-1.94 3.33,-4.45 3.83,-7.36 0.11,-0.63 0.14,-1.25 0.13,-1.87 0.01,-0.17 0.03,-0.33 0.03,-0.5 0,-7.66 -6.21,-13.86 -13.86,-13.86 -0.07,0 -0.13,0.01 -0.2,0.01 -3.32,0 -22.16,0 -22.16,0 h -0.1 l -8.48,48.24 31,-0.01 c 6.59,-0.11 12.39,-4.95 13.57,-11.68 0.84,-4.8 -0.87,-9.46 -4.15,-12.58 0.09,-0.08 0.16,-0.17 0.25,-0.25 z m -9.92,16.8 h -21.07 l 2.21,-12.8 h 18.85 c 3.52,0 6.37,2.88 6.37,6.4 0.01,3.51 -2.84,6.4 -6.36,6.4 z m 0.21,-20.49 -17.7,-0.04 2.13,-12.26 15.57,-0.02 c 3.4,0 6.16,2.76 6.16,6.16 0.01,3.4 -2.75,6.16 -6.16,6.16 z"
   id="path8"
   inkscape:connector-curvature="0"
   style="fill:#696969" />
		<polygon
   class="st0"
   points="159.71,54.15 161.06,46.42 131.97,46.42 134.18,33.8 152.53,33.8 153.89,26.08 135.52,26.08 137.69,13.63 166.81,13.63 168.16,5.91 130.8,5.91 130.79,5.91 122.32,54.15 "
   id="polygon10"
   style="fill:#696969" />
		<path
   class="st0"
   d="M 250.02,5.45 C 238.33,3 226.82,10.72 224.32,22.69 l -1.28,7.06 h 0.03 c -1.76,11.52 5.54,22.5 16.83,24.86 11.69,2.45 23.2,-5.27 25.7,-17.24 l 1.06,-5.83 C 269.17,19.57 261.72,7.89 250.02,5.45 Z m 9.02,23.77 -1.19,6.76 c -1.59,7.59 -8.88,12.48 -16.3,10.93 -7.16,-1.5 -11.79,-8.46 -10.67,-15.77 h -0.02 l 1.21,-6.84 c 1.59,-7.59 8.88,-12.48 16.3,-10.93 7.19,1.5 11.83,8.51 10.66,15.85 z"
   id="path12"
   inkscape:connector-curvature="0"
   style="fill:#696969" />
		<path
   class="st0"
   d="m 215.93,21.74 c 0,-8.78 -7.12,-15.9 -15.9,-15.9 l -23.53,0.07 -8.48,48.23 h 8.31 l 2.88,-16.5 h 16.43 l 7.96,16.51 8.8,-0.01 -8.29,-17.05 c 6.8,-1.81 11.82,-7.99 11.82,-15.35 z m -16.07,8.18 c -0.25,0 -19.29,-0.04 -19.29,-0.04 l 2.83,-16.3 c 0,0 16.47,-0.01 16.52,-0.01 4.52,0.02 8.16,3.69 8.14,8.21 -0.01,4.51 -3.68,8.15 -8.2,8.14 z"
   id="path14"
   inkscape:connector-curvature="0"
   style="fill:#696969" />
		<path
   class="st0"
   d="M 122.87,5.9 H 93.72 C 85.87,5.85 79.32,11.5 77.98,18.97 L 71.8,54.14 h 8.31 l 2.87,-16.45 h 26.27 l -2.89,16.45 h 8.31 L 123.08,5.9 Z M 110.6,29.96 H 84.33 l 1.66,-9.58 c 0.67,-3.86 4.05,-6.78 8.1,-6.76 l 19.39,0.01 z"
   id="path16"
   inkscape:connector-curvature="0"
   style="fill:#696969" />
		<polygon
   class="st0"
   points="294.39,26.08 277.89,26.08 276.51,33.8 293.01,33.8 "
   id="polygon18"
   style="fill:#696969" />
		<polygon
   class="st0"
   points="311.75,41.15 312.47,5.91 304.59,5.91 303.54,54.15 312.83,54.15 325.98,33.25 333.2,54.15 333.26,54.15 341.29,54.15 354.15,5.91 346.17,5.91 336.75,41.09 330.81,24.02 322.57,24.02 "
   id="polygon20"
   style="fill:#696969" />
	</g>
</g>
<g
   id="g74"
   transform="matrix(0.42252847,0,0,0.42252847,-0.04647813,0)">
	<g
   id="g28">
		<path
   class="st1"
   d="m 20.42,35.6 c -0.01,0.01 -0.02,0.02 -0.02,0.03 2.69,2.05 6.08,3.24 9.72,3.15 8.52,-0.21 15.25,-7.29 15.04,-15.8 -0.02,-0.68 -0.08,-1.34 -0.18,-1.99 -9.52,3.84 -18.44,8.19 -24.56,14.61 z"
   id="path26"
   inkscape:connector-curvature="0"
   style="fill:#ff8300" />
	</g>
	<g
   id="g32">
		<path
   class="st2"
   d="M 14.31,23.73 C 14.1,15.21 20.83,8.14 29.35,7.93 c 3.57,-0.09 6.89,1.05 9.55,3.02 2.02,-1.8 4.04,-3.5 6,-5.08 C 40.69,2.22 35.17,0.06 29.16,0.21 16.39,0.53 6.29,11.15 6.6,23.92 c 0.05,1.88 0.32,3.71 0.79,5.45 2.46,-0.9 4.89,-1.82 7.26,-2.79 -0.19,-0.92 -0.31,-1.87 -0.34,-2.85 z"
   id="path30"
   inkscape:connector-curvature="0"
   style="fill:#ea0029" />
	</g>
	<g
   id="g36">
		<path
   class="st3"
   d="m 52.28,18.13 c 0.35,1.5 0.55,3.05 0.58,4.65 0.32,12.78 -9.78,23.39 -22.56,23.71 -5.74,0.14 -11.04,-1.82 -15.17,-5.18 -1.66,1.65 -3.54,3.4 -5.71,5.27 5.62,4.91 13.02,7.82 21.07,7.62 C 47.53,53.77 61,39.62 60.58,22.59 c -0.06,-2.5 -0.42,-4.92 -1.04,-7.23 -2.4,0.93 -4.83,1.84 -7.26,2.77 z"
   id="path34"
   inkscape:connector-curvature="0"
   style="fill:#3b3b3b" />
	</g>
	
		<linearGradient
   id="SVGID_1_"
   gradientUnits="userSpaceOnUse"
   x1="56.639301"
   y1="6.6068001"
   x2="29.679899"
   y2="-10.9482"
   gradientTransform="matrix(0.9997,-0.0248,0.0248,0.9997,-6.4403,22.3876)">
		<stop
   offset="0.1184"
   style="stop-color:#FFFFFF"
   id="stop38" />
		<stop
   offset="0.3057"
   style="stop-color:#C2C2C2"
   id="stop40" />
		<stop
   offset="0.7358"
   style="stop-color:#2C2C2C"
   id="stop42" />
		<stop
   offset="0.8587"
   style="stop-color:#000000"
   id="stop44" />
	</linearGradient>
	<path
   class="st4"
   d="m 20.37,35.61 c 0,0 0,0 0.02,0.02 C 29.59,25.97 45.14,20.97 59.54,15.36 58.21,10.39 55.67,5.92 52.27,2.28 47.55,5.75 41.68,10.4 36.16,15.72 28.97,22.63 26.54,28.22 20.37,35.61 Z"
   id="path47"
   style="fill:url(#SVGID_1_)"
   inkscape:connector-curvature="0" />
	<g
   id="g70">
		
			<linearGradient
   id="SVGID_2_"
   gradientUnits="userSpaceOnUse"
   x1="15.2379"
   y1="-3.9258001"
   x2="36.311001"
   y2="16.264099"
   gradientTransform="matrix(0.9997,-0.0248,0.0248,0.9997,-6.4403,22.3876)">
			<stop
   offset="0.1184"
   style="stop-color:#FFFFFF"
   id="stop49" />
			<stop
   offset="0.1853"
   style="stop-color:#FAFAFA"
   id="stop51" />
			<stop
   offset="0.2617"
   style="stop-color:#ECECEC"
   id="stop53" />
			<stop
   offset="0.3427"
   style="stop-color:#D6D6D6"
   id="stop55" />
			<stop
   offset="0.427"
   style="stop-color:#B6B6B6"
   id="stop57" />
			<stop
   offset="0.5137"
   style="stop-color:#8C8C8C"
   id="stop59" />
			<stop
   offset="0.6027"
   style="stop-color:#5A5A5A"
   id="stop61" />
			<stop
   offset="0.6917"
   style="stop-color:#1F1F1F"
   id="stop63" />
			<stop
   offset="0.7352"
   style="stop-color:#000000"
   id="stop65" />
		</linearGradient>
		<path
   class="st5"
   d="M 35.17,14.41 C 26.61,22.66 13.23,27.35 0.11,31.98 1.62,37.18 4.46,41.8 8.23,45.47 24.34,31.62 24.81,24.39 35.17,14.41 Z"
   id="path68"
   style="fill:url(#SVGID_2_)"
   inkscape:connector-curvature="0" />
	</g>
	<path
   class="st3"
   d="M 59.54,15.35 C 60.76,14.88 61.96,14.4 63.16,13.91 61.68,8.65 59,3.91 55.43,0 c -0.98,0.69 -2.04,1.45 -3.16,2.27 3.4,3.64 5.94,8.11 7.27,13.08 z"
   id="path72"
   inkscape:connector-curvature="0"
   style="fill:#3b3b3b" />
</g>
</svg>