<?xml version="1.0" encoding="UTF-8" standalone="no"?>
<!-- Generator: Adobe Illustrator 23.0.3, SVG Export Plug-In . SVG Version: 6.00 Build 0)  -->

<svg
   xmlns:dc="http://purl.org/dc/elements/1.1/"
   xmlns:cc="http://creativecommons.org/ns#"
   xmlns:rdf="http://www.w3.org/1999/02/22-rdf-syntax-ns#"
   xmlns:svg="http://www.w3.org/2000/svg"
   xmlns="http://www.w3.org/2000/svg"
   xmlns:sodipodi="http://sodipodi.sourceforge.net/DTD/sodipodi-0.dtd"
   xmlns:inkscape="http://www.inkscape.org/namespaces/inkscape"
   version="1.1"
   id="Calque_1"
   x="0px"
   y="0px"
   viewBox="0 0 49.700099 42.72906"
   xml:space="preserve"
   sodipodi:docname="top-left-logo-small-grey.svg"
   inkscape:version="0.92.3 (2405546, 2018-03-11)"
   width="49.7001"
   height="42.729061"><metadata
   id="metadata75"><rdf:RDF><cc:Work
       rdf:about=""><dc:format>image/svg+xml</dc:format><dc:type
         rdf:resource="http://purl.org/dc/dcmitype/StillImage" /><dc:title></dc:title></cc:Work></rdf:RDF></metadata><defs
   id="defs73" /><sodipodi:namedview
   pagecolor="#ffffff"
   bordercolor="#666666"
   borderopacity="1"
   objecttolerance="10"
   gridtolerance="10"
   guidetolerance="10"
   inkscape:pageopacity="0"
   inkscape:pageshadow="2"
   inkscape:window-width="1280"
   inkscape:window-height="1002"
   id="namedview71"
   showgrid="false"
   inkscape:zoom="11.054719"
   inkscape:cx="17.290107"
   inkscape:cy="27.450001"
   inkscape:window-x="1912"
   inkscape:window-y="48"
   inkscape:window-maximized="1"
   inkscape:current-layer="Calque_1"
   fit-margin-top="0"
   fit-margin-left="0"
   fit-margin-right="0"
   fit-margin-bottom="0" />
<style
   type="text/css"
   id="style2">
	.st0{fill:#B3B3B3;}
	.st1{fill:#696969;}
	.st2{fill:#3B3B3B;}
	.st3{fill:url(#SVGID_1_);}
	.st4{fill:url(#SVGID_2_);}
</style>
<g
   id="g68"
   transform="matrix(0.7402053,0,0,0.7402053,0,2.6027674)">
	
	
	
	
	
	
	
	
	
	<g
   id="g66">
		<g
   id="g24">
			<path
   class="st1"
   d="m 20.31,35.6 c -0.01,0.01 -0.02,0.02 -0.02,0.03 2.69,2.05 6.08,3.24 9.72,3.15 8.52,-0.21 15.25,-7.29 15.04,-15.8 -0.02,-0.68 -0.08,-1.34 -0.18,-1.99 -9.52,3.84 -18.44,8.19 -24.56,14.61 z"
   id="path22"
   inkscape:connector-curvature="0"
   style="fill:#696969" />
		</g>
		<g
   id="g28">
			<path
   class="st0"
   d="M 14.21,23.73 C 14,15.22 20.73,8.14 29.25,7.93 c 3.57,-0.09 6.89,1.05 9.55,3.02 2.02,-1.8 4.04,-3.5 6,-5.08 C 40.59,2.22 35.07,0.06 29.06,0.21 16.28,0.53 6.18,11.15 6.5,23.92 c 0.05,1.88 0.32,3.71 0.79,5.45 2.46,-0.9 4.89,-1.82 7.26,-2.79 -0.2,-0.92 -0.32,-1.87 -0.34,-2.85 z"
   id="path26"
   inkscape:connector-curvature="0"
   style="fill:#b3b3b3" />
		</g>
		<g
   id="g32">
			<path
   class="st2"
   d="m 52.18,18.13 c 0.35,1.5 0.55,3.05 0.58,4.65 0.32,12.78 -9.78,23.39 -22.56,23.71 -5.74,0.14 -11.04,-1.82 -15.17,-5.18 -1.66,1.65 -3.54,3.4 -5.71,5.27 5.62,4.91 13.02,7.82 21.07,7.62 17.03,-0.42 30.5,-14.57 30.08,-31.61 -0.06,-2.5 -0.42,-4.92 -1.04,-7.23 -2.4,0.93 -4.83,1.85 -7.25,2.77 z"
   id="path30"
   inkscape:connector-curvature="0"
   style="fill:#3b3b3b" />
		</g>
		
			<linearGradient
   id="SVGID_1_"
   gradientUnits="userSpaceOnUse"
   x1="56.533001"
   y1="6.6062999"
   x2="29.573601"
   y2="-10.9487"
   gradientTransform="matrix(0.9997,-0.0248,0.0248,0.9997,-6.4394,22.3859)">
			<stop
   offset="0.1184"
   style="stop-color:#B3B3B3"
   id="stop34" />
			<stop
   offset="0.3811"
   style="stop-color:#767676"
   id="stop36" />
			<stop
   offset="0.8587"
   style="stop-color:#000000"
   id="stop38" />
		</linearGradient>
		<path
   class="st3"
   d="m 20.27,35.61 c 0,0 0,0 0.02,0.02 C 29.49,25.97 45.04,20.97 59.44,15.36 58.11,10.39 55.57,5.92 52.17,2.28 47.45,5.75 41.58,10.4 36.06,15.72 28.87,22.63 26.44,28.22 20.27,35.61 Z"
   id="path41"
   inkscape:connector-curvature="0"
   style="fill:url(#SVGID_1_)" />
		<g
   id="g62">
			
				<linearGradient
   id="SVGID_2_"
   gradientUnits="userSpaceOnUse"
   x1="15.1316"
   y1="-3.9263"
   x2="36.2048"
   y2="16.2635"
   gradientTransform="matrix(0.9997,-0.0248,0.0248,0.9997,-6.4394,22.3859)">
				<stop
   offset="0.1184"
   style="stop-color:#B3B3B3"
   id="stop43" />
				<stop
   offset="0.2"
   style="stop-color:#AEAEAE"
   id="stop45" />
				<stop
   offset="0.2931"
   style="stop-color:#A0A0A0"
   id="stop47" />
				<stop
   offset="0.3918"
   style="stop-color:#898989"
   id="stop49" />
				<stop
   offset="0.4944"
   style="stop-color:#696969"
   id="stop51" />
				<stop
   offset="0.6001"
   style="stop-color:#404040"
   id="stop53" />
				<stop
   offset="0.7069"
   style="stop-color:#0E0E0E"
   id="stop55" />
				<stop
   offset="0.7352"
   style="stop-color:#000000"
   id="stop57" />
			</linearGradient>
			<path
   class="st4"
   d="M 35.06,14.41 C 26.5,22.66 13.13,27.35 0,31.98 1.51,37.18 4.35,41.8 8.12,45.47 24.23,31.62 24.7,24.39 35.06,14.41 Z"
   id="path60"
   inkscape:connector-curvature="0"
   style="fill:url(#SVGID_2_)" />
		</g>
		<path
   class="st2"
   d="M 59.43,15.35 C 60.65,14.88 61.85,14.4 63.05,13.91 61.57,8.65 58.89,3.91 55.32,0 c -0.98,0.69 -2.04,1.45 -3.16,2.27 3.4,3.64 5.94,8.11 7.27,13.08 z"
   id="path64"
   inkscape:connector-curvature="0"
   style="fill:#3b3b3b" />
	</g>
</g>
</svg>