<?xml version="1.0" encoding="UTF-8" standalone="no"?>
<!-- Generator: Adobe Illustrator 23.0.3, SVG Export Plug-In . SVG Version: 6.00 Build 0)  -->

<svg
   xmlns:dc="http://purl.org/dc/elements/1.1/"
   xmlns:cc="http://creativecommons.org/ns#"
   xmlns:rdf="http://www.w3.org/1999/02/22-rdf-syntax-ns#"
   xmlns:svg="http://www.w3.org/2000/svg"
   xmlns="http://www.w3.org/2000/svg"
   xmlns:sodipodi="http://sodipodi.sourceforge.net/DTD/sodipodi-0.dtd"
   xmlns:inkscape="http://www.inkscape.org/namespaces/inkscape"
   version="1.1"
   id="Calque_1"
   x="0px"
   y="0px"
   viewBox="0 0 27.853063 23.946337"
   xml:space="preserve"
   sodipodi:docname="top-left-logo-small-color.svg"
   width="27.853064"
   height="23.946339"
   inkscape:version="0.92.3 (2405546, 2018-03-11)"><metadata
   id="metadata59"><rdf:RDF><cc:Work
       rdf:about=""><dc:format>image/svg+xml</dc:format><dc:type
         rdf:resource="http://purl.org/dc/dcmitype/StillImage" /><dc:title></dc:title></cc:Work></rdf:RDF></metadata><defs
   id="defs57" /><sodipodi:namedview
   pagecolor="#ffffff"
   bordercolor="#666666"
   borderopacity="1"
   objecttolerance="10"
   gridtolerance="10"
   guidetolerance="10"
   inkscape:pageopacity="0"
   inkscape:pageshadow="2"
   inkscape:window-width="1280"
   inkscape:window-height="1002"
   id="namedview55"
   showgrid="false"
   fit-margin-top="0"
   fit-margin-left="0"
   fit-margin-right="0"
   fit-margin-bottom="0"
   inkscape:zoom="1.9990682"
   inkscape:cx="111.49816"
   inkscape:cy="144.63581"
   inkscape:window-x="1912"
   inkscape:window-y="48"
   inkscape:window-maximized="1"
   inkscape:current-layer="Calque_1" />
<style
   type="text/css"
   id="style2">
	.st0{fill:#FF8300;}
	.st1{fill:#EA0029;}
	.st2{fill:#3B3B3B;}
	.st3{fill:url(#SVGID_1_);}
	.st4{fill:url(#SVGID_2_);}
</style>
<g
   id="g52"
   transform="scale(0.05070001)">
	<g
   id="g6">
		<path
   class="st0"
   d="m 176.98,310.18 c -0.07,0.07 -0.14,0.15 -0.21,0.22 23.47,17.89 52.94,28.23 84.73,27.45 74.22,-1.84 132.89,-63.49 131.05,-137.71 -0.15,-5.89 -0.71,-11.66 -1.58,-17.33 -82.95,33.53 -160.66,71.49 -213.99,127.37 z"
   id="path4"
   inkscape:connector-curvature="0"
   style="fill:#ff8300" />
	</g>
	<g
   id="g10">
		<path
   class="st1"
   d="M 123.79,206.8 C 121.95,132.58 180.62,70.93 254.84,69.09 285.97,68.32 314.86,78.22 338.08,95.42 355.69,79.72 373.31,64.91 390.33,51.2 353.69,19.37 305.52,0.6 253.18,1.9 141.85,4.66 53.84,97.14 56.6,208.46 c 0.41,16.42 2.78,32.33 6.86,47.52 21.41,-7.83 42.6,-15.88 63.28,-24.35 -1.71,-8.03 -2.74,-16.32 -2.95,-24.83 z"
   id="path8"
   inkscape:connector-curvature="0"
   style="fill:#ea0029" />
	</g>
	<g
   id="g14">
		<path
   class="st2"
   d="m 454.64,157.98 c 3.01,13.05 4.75,26.59 5.1,40.5 2.76,111.32 -85.25,203.8 -196.57,206.56 -50.01,1.24 -96.21,-15.85 -132.19,-45.13 -14.46,14.39 -30.87,29.64 -49.76,45.94 48.95,42.82 113.47,68.12 183.61,66.38 148.43,-3.68 265.78,-126.98 262.1,-275.42 -0.54,-21.78 -3.67,-42.88 -9.07,-63.04 -20.9,8.15 -42.07,16.15 -63.22,24.21 z"
   id="path12"
   inkscape:connector-curvature="0"
   style="fill:#3b3b3b" />
	</g>
	
		<linearGradient
   id="SVGID_1_"
   gradientUnits="userSpaceOnUse"
   x1="443.79449"
   y1="228.3103"
   x2="208.8784"
   y2="75.341599"
   gradientTransform="matrix(0.9997,-0.0248,0.0248,0.9997,-11.5424,23.1589)">
		<stop
   offset="0.1184"
   style="stop-color:#FFFFFF"
   id="stop16" />
		<stop
   offset="0.3057"
   style="stop-color:#C2C2C2"
   id="stop18" />
		<stop
   offset="0.7358"
   style="stop-color:#2C2C2C"
   id="stop20" />
		<stop
   offset="0.8587"
   style="stop-color:#000000"
   id="stop22" />
	</linearGradient>
	<path
   class="st3"
   d="m 176.6,310.25 c 0,0 0,0 0.16,0.15 C 256.94,226.22 392.4,182.67 517.86,133.76 506.27,90.43 484.15,51.5 454.48,19.81 413.36,50.02 362.19,90.56 314.07,136.92 c -62.54,60.26 -83.71,109 -137.47,173.33 z"
   id="path25"
   style="fill:url(#SVGID_1_)"
   inkscape:connector-curvature="0" />
	<g
   id="g48">
		
			<linearGradient
   id="SVGID_2_"
   gradientUnits="userSpaceOnUse"
   x1="83.035004"
   y1="136.53281"
   x2="266.66"
   y2="312.461"
   gradientTransform="matrix(0.9997,-0.0248,0.0248,0.9997,-11.5424,23.1589)">
			<stop
   offset="0.1184"
   style="stop-color:#FFFFFF"
   id="stop27" />
			<stop
   offset="0.1853"
   style="stop-color:#FAFAFA"
   id="stop29" />
			<stop
   offset="0.2617"
   style="stop-color:#ECECEC"
   id="stop31" />
			<stop
   offset="0.3427"
   style="stop-color:#D6D6D6"
   id="stop33" />
			<stop
   offset="0.427"
   style="stop-color:#B6B6B6"
   id="stop35" />
			<stop
   offset="0.5137"
   style="stop-color:#8C8C8C"
   id="stop37" />
			<stop
   offset="0.6027"
   style="stop-color:#5A5A5A"
   id="stop39" />
			<stop
   offset="0.6917"
   style="stop-color:#1F1F1F"
   id="stop41" />
			<stop
   offset="0.7352"
   style="stop-color:#000000"
   id="stop43" />
		</linearGradient>
		<path
   class="st4"
   d="M 305.52,125.57 C 230.91,197.45 114.37,238.3 0,278.64 c 13.16,45.32 37.9,85.59 70.72,117.52 140.42,-120.6 144.51,-183.6 234.8,-270.59 z"
   id="path46"
   style="fill:url(#SVGID_2_)"
   inkscape:connector-curvature="0" />
	</g>
	<path
   class="st2"
   d="m 517.86,133.77 c 10.59,-4.13 21.1,-8.29 31.51,-12.53 C 536.47,75.44 513.1,34.14 482.05,0 c -8.5,5.98 -17.75,12.6 -27.57,19.81 29.67,31.7 51.79,70.62 63.38,113.96 z"
   id="path50"
   inkscape:connector-curvature="0"
   style="fill:#3b3b3b" />
</g>
</svg>