<?xml version="1.0" encoding="UTF-8" standalone="no"?>
<!-- Generator: Adobe Illustrator 23.0.3, SVG Export Plug-In . SVG Version: 6.00 Build 0)  -->

<svg
   xmlns:dc="http://purl.org/dc/elements/1.1/"
   xmlns:cc="http://creativecommons.org/ns#"
   xmlns:rdf="http://www.w3.org/1999/02/22-rdf-syntax-ns#"
   xmlns:svg="http://www.w3.org/2000/svg"
   xmlns="http://www.w3.org/2000/svg"
   xmlns:sodipodi="http://sodipodi.sourceforge.net/DTD/sodipodi-0.dtd"
   xmlns:inkscape="http://www.inkscape.org/namespaces/inkscape"
   version="1.1"
   id="Calque_1"
   x="0px"
   y="0px"
   viewBox="0 0 210.10824 23.493856"
   xml:space="preserve"
   sodipodi:docname="top-left-logo-large_with-logo.svg"
   width="210.10825"
   height="23.493856"
   inkscape:version="0.92.3 (2405546, 2018-03-11)"><metadata
   id="metadata75"><rdf:RDF><cc:Work
       rdf:about=""><dc:format>image/svg+xml</dc:format><dc:type
         rdf:resource="http://purl.org/dc/dcmitype/StillImage" /><dc:title></dc:title></cc:Work></rdf:RDF></metadata><defs
   id="defs73" /><sodipodi:namedview
   pagecolor="#ffffff"
   bordercolor="#666666"
   borderopacity="1"
   objecttolerance="10"
   gridtolerance="10"
   guidetolerance="10"
   inkscape:pageopacity="0"
   inkscape:pageshadow="2"
   inkscape:window-width="1858"
   inkscape:window-height="1058"
   id="namedview71"
   showgrid="false"
   inkscape:zoom="1.4458614"
   inkscape:cx="246.87031"
   inkscape:cy="31.816968"
   inkscape:window-x="54"
   inkscape:window-y="-8"
   inkscape:window-maximized="1"
   inkscape:current-layer="Calque_1"
   fit-margin-top="0"
   fit-margin-left="0"
   fit-margin-right="0"
   fit-margin-bottom="0" />
<style
   type="text/css"
   id="style2">
	.st0{fill:#B3B3B3;}
	.st1{fill:#696969;}
	.st2{fill:#3B3B3B;}
	.st3{fill:url(#SVGID_1_);}
	.st4{fill:url(#SVGID_2_);}
</style>
<g
   id="g68"
   transform="scale(0.4266677)">
	<polygon
   class="st0"
   points="359.78,5.91 351.31,54.15 388.69,54.15 390.05,46.42 360.96,46.42 363.16,33.8 381.52,33.8 382.88,26.08 364.51,26.08 366.68,13.63 395.8,13.63 397.15,5.91 "
   id="polygon4"
   style="fill:#b3b3b3" />
	<path
   class="st0"
   d="m 437.7,29.63 c 0.05,-0.05 0.1,-0.09 0.14,-0.14 1.93,-1.94 3.33,-4.45 3.83,-7.36 0.11,-0.63 0.14,-1.25 0.13,-1.87 0.01,-0.17 0.03,-0.33 0.03,-0.5 0,-7.66 -6.21,-13.86 -13.86,-13.86 -0.07,0 -0.13,0.01 -0.2,0.01 -3.32,0 -22.16,0 -22.16,0 h -0.1 l -8.48,48.24 31,-0.01 c 6.59,-0.11 12.39,-4.95 13.57,-11.68 0.84,-4.8 -0.87,-9.46 -4.15,-12.58 0.09,-0.08 0.17,-0.17 0.25,-0.25 z m -9.91,16.8 h -21.07 l 2.21,-12.8 h 18.85 c 3.52,0 6.37,2.88 6.37,6.4 0.01,3.51 -2.84,6.4 -6.36,6.4 z M 428,25.94 410.3,25.9 412.43,13.64 428,13.62 c 3.4,0 6.16,2.76 6.16,6.16 0.01,3.4 -2.75,6.16 -6.16,6.16 z"
   id="path6"
   inkscape:connector-curvature="0"
   style="fill:#b3b3b3" />
	<path
   class="st0"
   d="m 488.31,29.63 c 0.05,-0.05 0.1,-0.09 0.14,-0.14 1.93,-1.94 3.33,-4.45 3.83,-7.36 0.11,-0.63 0.14,-1.25 0.13,-1.87 0.01,-0.17 0.03,-0.33 0.03,-0.5 0,-7.66 -6.21,-13.86 -13.86,-13.86 -0.07,0 -0.13,0.01 -0.2,0.01 -3.32,0 -22.16,0 -22.16,0 h -0.1 l -8.48,48.24 31,-0.01 c 6.59,-0.11 12.39,-4.95 13.57,-11.68 0.84,-4.8 -0.87,-9.46 -4.15,-12.58 0.09,-0.08 0.17,-0.17 0.25,-0.25 z m -9.91,16.8 h -21.07 l 2.21,-12.8 h 18.85 c 3.52,0 6.37,2.88 6.37,6.4 0.01,3.51 -2.84,6.4 -6.36,6.4 z m 0.21,-20.49 -17.7,-0.04 2.13,-12.26 15.57,-0.02 c 3.4,0 6.16,2.76 6.16,6.16 0,3.4 -2.76,6.16 -6.16,6.16 z"
   id="path8"
   inkscape:connector-curvature="0"
   style="fill:#b3b3b3" />
	<polygon
   class="st0"
   points="130.69,5.91 122.21,54.15 159.6,54.15 160.96,46.42 131.87,46.42 134.07,33.8 152.43,33.8 153.78,26.08 135.42,26.08 137.59,13.64 166.7,13.64 168.06,5.91 "
   id="polygon10"
   style="fill:#b3b3b3" />
	<path
   class="st0"
   d="M 249.92,5.45 C 238.23,3 226.72,10.72 224.22,22.69 l -1.28,7.06 h 0.03 c -1.76,11.52 5.54,22.5 16.83,24.86 11.69,2.45 23.2,-5.27 25.7,-17.24 l 1.06,-5.83 C 269.06,19.57 261.61,7.89 249.92,5.45 Z m 9.02,23.77 -1.19,6.76 c -1.59,7.59 -8.88,12.48 -16.3,10.93 -7.16,-1.5 -11.79,-8.46 -10.67,-15.77 h -0.02 l 1.21,-6.84 c 1.59,-7.59 8.88,-12.48 16.3,-10.93 7.19,1.5 11.83,8.51 10.66,15.85 z"
   id="path12"
   inkscape:connector-curvature="0"
   style="fill:#b3b3b3" />
	<path
   class="st0"
   d="m 215.82,21.74 c 0,-8.78 -7.12,-15.9 -15.9,-15.9 L 176.38,5.9 167.9,54.13 h 8.31 l 2.88,-16.5 h 16.43 l 7.96,16.51 8.8,-0.01 -8.29,-17.05 c 6.82,-1.8 11.83,-7.98 11.83,-15.34 z m -16.06,8.18 c -0.25,0 -19.29,-0.04 -19.29,-0.04 l 2.83,-16.3 c 0,0 16.47,-0.01 16.52,-0.01 4.52,0.02 8.16,3.69 8.14,8.21 -0.01,4.51 -3.69,8.15 -8.2,8.14 z"
   id="path14"
   inkscape:connector-curvature="0"
   style="fill:#b3b3b3" />
	<path
   class="st0"
   d="M 122.77,5.9 H 93.62 C 85.77,5.85 79.22,11.5 77.88,18.97 L 71.7,54.14 H 80 l 2.87,-16.45 h 26.27 l -2.89,16.45 h 8.31 L 122.97,5.9 Z M 110.5,29.96 H 84.22 l 1.66,-9.58 c 0.67,-3.86 4.05,-6.78 8.1,-6.76 l 19.39,0.01 z"
   id="path16"
   inkscape:connector-curvature="0"
   style="fill:#b3b3b3" />
	<polygon
   class="st0"
   points="277.78,26.08 276.4,33.8 292.91,33.8 294.29,26.08 "
   id="polygon18"
   style="fill:#b3b3b3" />
	<polygon
   class="st0"
   points="354.04,5.91 346.07,5.91 336.65,41.09 330.71,24.02 322.46,24.02 311.65,41.15 312.36,5.91 304.48,5.91 303.44,54.15 312.72,54.15 325.87,33.25 333.1,54.15 333.15,54.15 341.19,54.15 "
   id="polygon20"
   style="fill:#b3b3b3" />
	<g
   id="g66">
		<g
   id="g24">
			<path
   class="st1"
   d="m 20.31,35.6 c -0.01,0.01 -0.02,0.02 -0.02,0.03 2.69,2.05 6.08,3.24 9.72,3.15 8.52,-0.21 15.25,-7.29 15.04,-15.8 -0.02,-0.68 -0.08,-1.34 -0.18,-1.99 -9.52,3.84 -18.44,8.19 -24.56,14.61 z"
   id="path22"
   inkscape:connector-curvature="0"
   style="fill:#696969" />
		</g>
		<g
   id="g28">
			<path
   class="st0"
   d="M 14.21,23.73 C 14,15.22 20.73,8.14 29.25,7.93 c 3.57,-0.09 6.89,1.05 9.55,3.02 2.02,-1.8 4.04,-3.5 6,-5.08 C 40.59,2.22 35.07,0.06 29.06,0.21 16.28,0.53 6.18,11.15 6.5,23.92 c 0.05,1.88 0.32,3.71 0.79,5.45 2.46,-0.9 4.89,-1.82 7.26,-2.79 -0.2,-0.92 -0.32,-1.87 -0.34,-2.85 z"
   id="path26"
   inkscape:connector-curvature="0"
   style="fill:#b3b3b3" />
		</g>
		<g
   id="g32">
			<path
   class="st2"
   d="m 52.18,18.13 c 0.35,1.5 0.55,3.05 0.58,4.65 0.32,12.78 -9.78,23.39 -22.56,23.71 -5.74,0.14 -11.04,-1.82 -15.17,-5.18 -1.66,1.65 -3.54,3.4 -5.71,5.27 5.62,4.91 13.02,7.82 21.07,7.62 17.03,-0.42 30.5,-14.57 30.08,-31.61 -0.06,-2.5 -0.42,-4.92 -1.04,-7.23 -2.4,0.93 -4.83,1.85 -7.25,2.77 z"
   id="path30"
   inkscape:connector-curvature="0"
   style="fill:#3b3b3b" />
		</g>
		
			<linearGradient
   id="SVGID_1_"
   gradientUnits="userSpaceOnUse"
   x1="56.533001"
   y1="6.6062999"
   x2="29.573601"
   y2="-10.9487"
   gradientTransform="matrix(0.9997,-0.0248,0.0248,0.9997,-6.4394,22.3859)">
			<stop
   offset="0.1184"
   style="stop-color:#B3B3B3"
   id="stop34" />
			<stop
   offset="0.3811"
   style="stop-color:#767676"
   id="stop36" />
			<stop
   offset="0.8587"
   style="stop-color:#000000"
   id="stop38" />
		</linearGradient>
		<path
   class="st3"
   d="m 20.27,35.61 c 0,0 0,0 0.02,0.02 C 29.49,25.97 45.04,20.97 59.44,15.36 58.11,10.39 55.57,5.92 52.17,2.28 47.45,5.75 41.58,10.4 36.06,15.72 28.87,22.63 26.44,28.22 20.27,35.61 Z"
   id="path41"
   inkscape:connector-curvature="0"
   style="fill:url(#SVGID_1_)" />
		<g
   id="g62">
			
				<linearGradient
   id="SVGID_2_"
   gradientUnits="userSpaceOnUse"
   x1="15.1316"
   y1="-3.9263"
   x2="36.2048"
   y2="16.2635"
   gradientTransform="matrix(0.9997,-0.0248,0.0248,0.9997,-6.4394,22.3859)">
				<stop
   offset="0.1184"
   style="stop-color:#B3B3B3"
   id="stop43" />
				<stop
   offset="0.2"
   style="stop-color:#AEAEAE"
   id="stop45" />
				<stop
   offset="0.2931"
   style="stop-color:#A0A0A0"
   id="stop47" />
				<stop
   offset="0.3918"
   style="stop-color:#898989"
   id="stop49" />
				<stop
   offset="0.4944"
   style="stop-color:#696969"
   id="stop51" />
				<stop
   offset="0.6001"
   style="stop-color:#404040"
   id="stop53" />
				<stop
   offset="0.7069"
   style="stop-color:#0E0E0E"
   id="stop55" />
				<stop
   offset="0.7352"
   style="stop-color:#000000"
   id="stop57" />
			</linearGradient>
			<path
   class="st4"
   d="M 35.06,14.41 C 26.5,22.66 13.13,27.35 0,31.98 1.51,37.18 4.35,41.8 8.12,45.47 24.23,31.62 24.7,24.39 35.06,14.41 Z"
   id="path60"
   inkscape:connector-curvature="0"
   style="fill:url(#SVGID_2_)" />
		</g>
		<path
   class="st2"
   d="M 59.43,15.35 C 60.65,14.88 61.85,14.4 63.05,13.91 61.57,8.65 58.89,3.91 55.32,0 c -0.98,0.69 -2.04,1.45 -3.16,2.27 3.4,3.64 5.94,8.11 7.27,13.08 z"
   id="path64"
   inkscape:connector-curvature="0"
   style="fill:#3b3b3b" />
	</g>
</g>
</svg>