<svg xmlns="http://www.w3.org/2000/svg" width="27" height="23.265936" viewBox="0 0 27 23.265937"><defs/><g transform="translate(-.04647813) scale(.42253)"><path fill="#ff8300" d="M20.42 35.6c-.01.01-.02.02-.02.03 2.69 2.05 6.08 3.24 9.72 3.15 8.52-.21 15.25-7.29 15.04-15.8-.02-.68-.08-1.34-.18-1.99-9.52 3.84-18.44 8.19-24.56 14.61z"/><path fill="#ea0029" d="M14.31 23.73c-.21-8.52 6.52-15.59 15.04-15.8 3.57-.09 6.89 1.05 9.55 3.02 2.02-1.8 4.04-3.5 6-5.08C40.69 2.22 35.17.06 29.16.21 16.39.53 6.29 11.15 6.6 23.92c.05 1.88.32 3.71.79 5.45 2.46-.9 4.89-1.82 7.26-2.79-.19-.92-.31-1.87-.34-2.85z"/><path fill="#fff" d="M52.28 18.13c.35 1.5.55 3.05.58 4.65.32 12.78-9.78 23.39-22.56 23.71-5.74.14-11.04-1.82-15.17-5.18-1.66 1.65-3.54 3.4-5.71 5.27 5.62 4.91 13.02 7.82 21.07 7.62C47.53 53.77 61 39.62 60.58 22.59c-.06-2.5-.42-4.92-1.04-7.23-2.4.93-4.83 1.84-7.26 2.77z" class="st3"/><linearGradient id="a" x1="56.639301" x2="29.679899" y1="6.6068001" y2="-10.9482" gradientTransform="rotate(-1.403 899.45278234 270.56999333)" gradientUnits="userSpaceOnUse"><stop offset=".1184" stop-color="#fff"/><stop offset=".3057" stop-color="#c2c2c2"/><stop offset=".7358" stop-color="#2c2c2c"/><stop offset=".8587"/></linearGradient><path fill="url(#a)" d="M20.37 35.61l.02.02c9.2-9.66 24.75-14.66 39.15-20.27-1.33-4.97-3.87-9.44-7.27-13.08-4.72 3.47-10.59 8.12-16.11 13.44-7.19 6.91-9.62 12.5-15.79 19.89z"/><linearGradient id="b" x1="15.2379" x2="36.311001" y1="-3.9258001" y2="16.264099" gradientTransform="rotate(-1.403 899.45278234 270.56999333)" gradientUnits="userSpaceOnUse"><stop offset=".1184" stop-color="#fff"/><stop offset=".1853" stop-color="#fafafa"/><stop offset=".2617" stop-color="#ececec"/><stop offset=".3427" stop-color="#d6d6d6"/><stop offset=".427" stop-color="#b6b6b6"/><stop offset=".5137" stop-color="#8c8c8c"/><stop offset=".6027" stop-color="#5a5a5a"/><stop offset=".6917" stop-color="#1f1f1f"/><stop offset=".7352"/></linearGradient><path fill="url(#b)" d="M35.17 14.41C26.61 22.66 13.23 27.35.11 31.98c1.51 5.2 4.35 9.82 8.12 13.49 16.11-13.85 16.58-21.08 26.94-31.06z"/><path fill="#fff" d="M59.54 15.35c1.22-.47 2.42-.95 3.62-1.44C61.68 8.65 59 3.91 55.43 0c-.98.69-2.04 1.45-3.16 2.27 3.4 3.64 5.94 8.11 7.27 13.08z" class="st3"/></g></svg>
